<?xml version="1.0" encoding="UTF-8" standalone="no"?>
<!DOCTYPE svg PUBLIC "-//W3C//DTD SVG 1.1//EN"
 "http://www.w3.org/Graphics/SVG/1.1/DTD/svg11.dtd">
<!-- Generated by graphviz version 2.47.0 (20210316.0004)
 -->
<!-- Title: dependencies Pages: 1 -->
<svg width="1428pt" height="211pt"
 viewBox="0.00 0.00 1428.00 211.00" xmlns="http://www.w3.org/2000/svg" xmlns:xlink="http://www.w3.org/1999/xlink">
<g id="graph0" class="graph" transform="scale(1 1) rotate(0) translate(4 207)">
<title>dependencies</title>
<polygon fill="white" stroke="transparent" points="-4,4 -4,-207 1424,-207 1424,4 -4,4"/>
<text text-anchor="start" x="689.01" y="-42.4" font-family="Times-12" font-weight="bold" font-size="14.00">Legend</text>
<polygon fill="#ffffb3" stroke="transparent" points="476,-10 476,-30 496,-30 496,-10 476,-10"/>
<text text-anchor="start" x="499.63" y="-15.4" font-family="Times-12" font-size="14.00"> &#160;Declarations</text>
<polygon fill="#8dd3c7" stroke="transparent" points="589,-10 589,-30 609,-30 609,-10 589,-10"/>
<text text-anchor="start" x="612.73" y="-15.4" font-family="Times-12" font-size="14.00"> &#160;Module</text>
<polygon fill="#80b1d3" stroke="transparent" points="675,-10 675,-30 695,-30 695,-10 675,-10"/>
<text text-anchor="start" x="698.78" y="-15.4" font-family="Times-12" font-size="14.00"> &#160;Bootstrap</text>
<polygon fill="#fdb462" stroke="transparent" points="772,-10 772,-30 792,-30 792,-10 772,-10"/>
<text text-anchor="start" x="795.67" y="-15.4" font-family="Times-12" font-size="14.00"> &#160;Providers</text>
<polygon fill="#fb8072" stroke="transparent" points="868,-10 868,-30 888,-30 888,-10 868,-10"/>
<text text-anchor="start" x="891.73" y="-15.4" font-family="Times-12" font-size="14.00"> &#160;Exports</text>
<g id="clust1" class="cluster">
<title>cluster_AplicativoModule</title>
<polygon fill="none" stroke="black" stroke-dasharray="1,5" points="8,-70 8,-195 1412,-195 1412,-70 8,-70"/>
</g>
<g id="clust2" class="cluster">
<title>cluster_AplicativoModule_declarations</title>
<polygon fill="none" stroke="black" points="436,-78 436,-130 1404,-130 1404,-78 436,-78"/>
</g>
<g id="clust9" class="cluster">
<title>cluster_AplicativoModule_imports</title>
<polygon fill="none" stroke="black" points="16,-78 16,-130 428,-130 428,-78 16,-78"/>
</g>
<!-- ContaDetalheComponent -->
<g id="node1" class="node">
<title>ContaDetalheComponent</title>
<polygon fill="#ffffb3" stroke="black" points="1396.31,-122 1237.69,-122 1237.69,-86 1396.31,-86 1396.31,-122"/>
<text text-anchor="middle" x="1317" y="-99.8" font-family="Times,serif" font-size="14.00">ContaDetalheComponent</text>
</g>
<!-- AplicativoModule -->
<g id="node7" class="node">
<title>AplicativoModule</title>
<polygon fill="#8dd3c7" stroke="black" points="717.15,-187 714.15,-191 693.15,-191 690.15,-187 598.85,-187 598.85,-151 717.15,-151 717.15,-187"/>
<text text-anchor="middle" x="658" y="-164.8" font-family="Times,serif" font-size="14.00">AplicativoModule</text>
</g>
<!-- ContaDetalheComponent&#45;&gt;AplicativoModule -->
<g id="edge1" class="edge">
<title>ContaDetalheComponent&#45;&gt;AplicativoModule</title>
<path fill="none" stroke="black" d="M1317,-122.01C1317,-144.49 1317,-180 1317,-180 1317,-180 727.35,-180 727.35,-180"/>
<polygon fill="black" stroke="black" points="727.35,-176.5 717.35,-180 727.35,-183.5 727.35,-176.5"/>
</g>
<!-- ContasComponent -->
<g id="node2" class="node">
<title>ContasComponent</title>
<polygon fill="#ffffb3" stroke="black" points="1220.22,-122 1099.78,-122 1099.78,-86 1220.22,-86 1220.22,-122"/>
<text text-anchor="middle" x="1160" y="-99.8" font-family="Times,serif" font-size="14.00">ContasComponent</text>
</g>
<!-- ContasComponent&#45;&gt;AplicativoModule -->
<g id="edge2" class="edge">
<title>ContasComponent&#45;&gt;AplicativoModule</title>
<path fill="none" stroke="black" d="M1160,-122.13C1160,-142.57 1160,-173 1160,-173 1160,-173 727.56,-173 727.56,-173"/>
<polygon fill="black" stroke="black" points="727.56,-169.5 717.56,-173 727.56,-176.5 727.56,-169.5"/>
</g>
<!-- EntrarComponent -->
<g id="node3" class="node">
<title>EntrarComponent</title>
<polygon fill="#ffffb3" stroke="black" points="1082.31,-122 965.69,-122 965.69,-86 1082.31,-86 1082.31,-122"/>
<text text-anchor="middle" x="1024" y="-99.8" font-family="Times,serif" font-size="14.00">EntrarComponent</text>
</g>
<!-- EntrarComponent&#45;&gt;AplicativoModule -->
<g id="edge3" class="edge">
<title>EntrarComponent&#45;&gt;AplicativoModule</title>
<path fill="none" stroke="black" d="M1024,-122.27C1024,-140.56 1024,-166 1024,-166 1024,-166 727.21,-166 727.21,-166"/>
<polygon fill="black" stroke="black" points="727.21,-162.5 717.21,-166 727.21,-169.5 727.21,-162.5"/>
</g>
<!-- LancamentoDetalheComponent -->
<g id="node4" class="node">
<title>LancamentoDetalheComponent</title>
<polygon fill="#ffffb3" stroke="black" points="948.06,-122 753.94,-122 753.94,-86 948.06,-86 948.06,-122"/>
<text text-anchor="middle" x="851" y="-99.8" font-family="Times,serif" font-size="14.00">LancamentoDetalheComponent</text>
</g>
<!-- LancamentoDetalheComponent&#45;&gt;AplicativoModule -->
<g id="edge4" class="edge">
<title>LancamentoDetalheComponent&#45;&gt;AplicativoModule</title>
<path fill="none" stroke="black" d="M851,-122.01C851,-138.05 851,-159 851,-159 851,-159 727.22,-159 727.22,-159"/>
<polygon fill="black" stroke="black" points="727.22,-155.5 717.22,-159 727.22,-162.5 727.22,-155.5"/>
</g>
<!-- LancamentosComponent -->
<g id="node5" class="node">
<title>LancamentosComponent</title>
<polygon fill="#ffffb3" stroke="black" points="735.97,-122 580.03,-122 580.03,-86 735.97,-86 735.97,-122"/>
<text text-anchor="middle" x="658" y="-99.8" font-family="Times,serif" font-size="14.00">LancamentosComponent</text>
</g>
<!-- LancamentosComponent&#45;&gt;AplicativoModule -->
<g id="edge5" class="edge">
<title>LancamentosComponent&#45;&gt;AplicativoModule</title>
<path fill="none" stroke="black" d="M658,-122.11C658,-122.11 658,-140.99 658,-140.99"/>
<polygon fill="black" stroke="black" points="654.5,-140.99 658,-150.99 661.5,-140.99 654.5,-140.99"/>
</g>
<!-- SaldosComponent -->
<g id="node6" class="node">
<title>SaldosComponent</title>
<polygon fill="#ffffb3" stroke="black" points="562.17,-122 443.83,-122 443.83,-86 562.17,-86 562.17,-122"/>
<text text-anchor="middle" x="503" y="-99.8" font-family="Times,serif" font-size="14.00">SaldosComponent</text>
</g>
<!-- SaldosComponent&#45;&gt;AplicativoModule -->
<g id="edge6" class="edge">
<title>SaldosComponent&#45;&gt;AplicativoModule</title>
<path fill="none" stroke="black" d="M503,-122.01C503,-138.05 503,-159 503,-159 503,-159 588.52,-159 588.52,-159"/>
<polygon fill="black" stroke="black" points="588.52,-162.5 598.52,-159 588.52,-155.5 588.52,-162.5"/>
</g>
<!-- AplicativoRoutingModule -->
<g id="node8" class="node">
<title>AplicativoRoutingModule</title>
<polygon fill="#8dd3c7" stroke="black" points="419.77,-122 416.77,-126 395.77,-126 392.77,-122 256.23,-122 256.23,-86 419.77,-86 419.77,-122"/>
<text text-anchor="middle" x="338" y="-99.8" font-family="Times,serif" font-size="14.00">AplicativoRoutingModule</text>
</g>
<!-- AplicativoRoutingModule&#45;&gt;AplicativoModule -->
<g id="edge7" class="edge">
<title>AplicativoRoutingModule&#45;&gt;AplicativoModule</title>
<path fill="none" stroke="black" d="M338,-122.27C338,-140.56 338,-166 338,-166 338,-166 588.56,-166 588.56,-166"/>
<polygon fill="black" stroke="black" points="588.56,-169.5 598.56,-166 588.56,-162.5 588.56,-169.5"/>
</g>
<!-- CoreModule -->
<g id="node9" class="node">
<title>CoreModule</title>
<polygon fill="#8dd3c7" stroke="black" points="238.26,-122 235.26,-126 214.26,-126 211.26,-122 151.74,-122 151.74,-86 238.26,-86 238.26,-122"/>
<text text-anchor="middle" x="195" y="-99.8" font-family="Times,serif" font-size="14.00">CoreModule</text>
</g>
<!-- CoreModule&#45;&gt;AplicativoModule -->
<g id="edge8" class="edge">
<title>CoreModule&#45;&gt;AplicativoModule</title>
<path fill="none" stroke="black" d="M195,-122.13C195,-142.57 195,-173 195,-173 195,-173 588.42,-173 588.42,-173"/>
<polygon fill="black" stroke="black" points="588.42,-176.5 598.42,-173 588.42,-169.5 588.42,-176.5"/>
</g>
<!-- PrimeNgModule -->
<g id="node10" class="node">
<title>PrimeNgModule</title>
<polygon fill="#8dd3c7" stroke="black" points="134.1,-122 131.1,-126 110.1,-126 107.1,-122 23.9,-122 23.9,-86 134.1,-86 134.1,-122"/>
<text text-anchor="middle" x="79" y="-99.8" font-family="Times,serif" font-size="14.00">PrimeNgModule</text>
</g>
<!-- PrimeNgModule&#45;&gt;AplicativoModule -->
<g id="edge9" class="edge">
<title>PrimeNgModule&#45;&gt;AplicativoModule</title>
<path fill="none" stroke="black" d="M79,-122.01C79,-144.49 79,-180 79,-180 79,-180 588.76,-180 588.76,-180"/>
<polygon fill="black" stroke="black" points="588.76,-183.5 598.76,-180 588.76,-176.5 588.76,-183.5"/>
</g>
</g>
</svg>
