<?xml version="1.0" encoding="UTF-8" standalone="no"?>
<!DOCTYPE svg PUBLIC "-//W3C//DTD SVG 1.1//EN"
 "http://www.w3.org/Graphics/SVG/1.1/DTD/svg11.dtd">
<!-- Generated by graphviz version 2.47.0 (20210316.0004)
 -->
<!-- Title: dependencies Pages: 1 -->
<svg width="913pt" height="284pt"
 viewBox="0.00 0.00 913.00 284.00" xmlns="http://www.w3.org/2000/svg" xmlns:xlink="http://www.w3.org/1999/xlink">
<g id="graph0" class="graph" transform="scale(1 1) rotate(0) translate(4 280)">
<title>dependencies</title>
<polygon fill="white" stroke="transparent" points="-4,4 -4,-280 909,-280 909,4 -4,4"/>
<text text-anchor="start" x="431.51" y="-42.4" font-family="Times-12" font-weight="bold" font-size="14.00">Legend</text>
<polygon fill="#ffffb3" stroke="transparent" points="218.5,-10 218.5,-30 238.5,-30 238.5,-10 218.5,-10"/>
<text text-anchor="start" x="242.13" y="-15.4" font-family="Times-12" font-size="14.00"> &#160;Declarations</text>
<polygon fill="#8dd3c7" stroke="transparent" points="331.5,-10 331.5,-30 351.5,-30 351.5,-10 331.5,-10"/>
<text text-anchor="start" x="355.23" y="-15.4" font-family="Times-12" font-size="14.00"> &#160;Module</text>
<polygon fill="#80b1d3" stroke="transparent" points="417.5,-10 417.5,-30 437.5,-30 437.5,-10 417.5,-10"/>
<text text-anchor="start" x="441.28" y="-15.4" font-family="Times-12" font-size="14.00"> &#160;Bootstrap</text>
<polygon fill="#fdb462" stroke="transparent" points="514.5,-10 514.5,-30 534.5,-30 534.5,-10 514.5,-10"/>
<text text-anchor="start" x="538.17" y="-15.4" font-family="Times-12" font-size="14.00"> &#160;Providers</text>
<polygon fill="#fb8072" stroke="transparent" points="610.5,-10 610.5,-30 630.5,-30 630.5,-10 610.5,-10"/>
<text text-anchor="start" x="634.23" y="-15.4" font-family="Times-12" font-size="14.00"> &#160;Exports</text>
<g id="clust1" class="cluster">
<title>cluster_AplicativoModule</title>
<polygon fill="none" stroke="black" stroke-dasharray="1,5" points="8,-70 8,-268 897,-268 897,-70 8,-70"/>
</g>
<g id="clust4" class="cluster">
<title>cluster_AplicativoModule_exports</title>
<polygon fill="none" stroke="black" points="318,-208 318,-260 584,-260 584,-208 318,-208"/>
</g>
<g id="clust6" class="cluster">
<title>cluster_AplicativoModule_providers</title>
<polygon fill="none" stroke="black" points="16,-78 16,-130 889,-130 889,-78 16,-78"/>
</g>
<!-- AuthenticationService  -->
<g id="node1" class="node">
<title>AuthenticationService </title>
<polygon fill="#fb8072" stroke="black" points="576.18,-252 431.82,-252 431.82,-216 576.18,-216 576.18,-252"/>
<text text-anchor="middle" x="504" y="-229.8" font-family="Times,serif" font-size="14.00">AuthenticationService </text>
</g>
<!-- UserService  -->
<g id="node2" class="node">
<title>UserService </title>
<polygon fill="#fb8072" stroke="black" points="413.9,-252 326.1,-252 326.1,-216 413.9,-216 413.9,-252"/>
<text text-anchor="middle" x="370" y="-229.8" font-family="Times,serif" font-size="14.00">UserService </text>
</g>
<!-- AplicativoModule -->
<g id="node3" class="node">
<title>AplicativoModule</title>
<polygon fill="#8dd3c7" stroke="black" points="496.15,-187 493.15,-191 472.15,-191 469.15,-187 377.85,-187 377.85,-151 496.15,-151 496.15,-187"/>
<text text-anchor="middle" x="437" y="-164.8" font-family="Times,serif" font-size="14.00">AplicativoModule</text>
</g>
<!-- AplicativoModule&#45;&gt;AuthenticationService  -->
<g id="edge1" class="edge">
<title>AplicativoModule&#45;&gt;AuthenticationService </title>
<path fill="none" stroke="black" stroke-dasharray="5,2" d="M463.99,-187.11C463.99,-187.11 463.99,-205.99 463.99,-205.99"/>
<polygon fill="black" stroke="black" points="460.49,-205.99 463.99,-215.99 467.49,-205.99 460.49,-205.99"/>
</g>
<!-- AplicativoModule&#45;&gt;UserService  -->
<g id="edge2" class="edge">
<title>AplicativoModule&#45;&gt;UserService </title>
<path fill="none" stroke="black" stroke-dasharray="5,2" d="M395.81,-187.11C395.81,-187.11 395.81,-205.99 395.81,-205.99"/>
<polygon fill="black" stroke="black" points="392.31,-205.99 395.81,-215.99 399.31,-205.99 392.31,-205.99"/>
</g>
<!-- AuthenticationService -->
<g id="node4" class="node">
<title>AuthenticationService</title>
<ellipse fill="#fdb462" stroke="black" cx="784" cy="-104" rx="97.27" ry="18"/>
<text text-anchor="middle" x="784" y="-99.8" font-family="Times,serif" font-size="14.00">AuthenticationService</text>
</g>
<!-- AuthenticationService&#45;&gt;AplicativoModule -->
<g id="edge3" class="edge">
<title>AuthenticationService&#45;&gt;AplicativoModule</title>
<path fill="none" stroke="black" d="M784,-122.28C784,-143.32 784,-175 784,-175 784,-175 506.26,-175 506.26,-175"/>
<polygon fill="black" stroke="black" points="506.26,-171.5 496.26,-175 506.26,-178.5 506.26,-171.5"/>
</g>
<!-- ContaService -->
<g id="node5" class="node">
<title>ContaService</title>
<ellipse fill="#fdb462" stroke="black" cx="606" cy="-104" rx="63.12" ry="18"/>
<text text-anchor="middle" x="606" y="-99.8" font-family="Times,serif" font-size="14.00">ContaService</text>
</g>
<!-- ContaService&#45;&gt;AplicativoModule -->
<g id="edge4" class="edge">
<title>ContaService&#45;&gt;AplicativoModule</title>
<path fill="none" stroke="black" d="M559.64,-116.22C559.64,-133.51 559.64,-163 559.64,-163 559.64,-163 506.16,-163 506.16,-163"/>
<polygon fill="black" stroke="black" points="506.16,-159.5 496.16,-163 506.16,-166.5 506.16,-159.5"/>
</g>
<!-- LancamentoService -->
<g id="node6" class="node">
<title>LancamentoService</title>
<ellipse fill="#fdb462" stroke="black" cx="437" cy="-104" rx="87.94" ry="18"/>
<text text-anchor="middle" x="437" y="-99.8" font-family="Times,serif" font-size="14.00">LancamentoService</text>
</g>
<!-- LancamentoService&#45;&gt;AplicativoModule -->
<g id="edge5" class="edge">
<title>LancamentoService&#45;&gt;AplicativoModule</title>
<path fill="none" stroke="black" d="M437,-122.11C437,-122.11 437,-140.99 437,-140.99"/>
<polygon fill="black" stroke="black" points="433.5,-140.99 437,-150.99 440.5,-140.99 433.5,-140.99"/>
</g>
<!-- NotificationService -->
<g id="node7" class="node">
<title>NotificationService</title>
<ellipse fill="#fdb462" stroke="black" cx="245" cy="-104" rx="86.81" ry="18"/>
<text text-anchor="middle" x="245" y="-99.8" font-family="Times,serif" font-size="14.00">NotificationService</text>
</g>
<!-- NotificationService&#45;&gt;AplicativoModule -->
<g id="edge6" class="edge">
<title>NotificationService&#45;&gt;AplicativoModule</title>
<path fill="none" stroke="black" d="M242.2,-122.02C242.2,-139.37 242.2,-163 242.2,-163 242.2,-163 367.76,-163 367.76,-163"/>
<polygon fill="black" stroke="black" points="367.76,-166.5 377.76,-163 367.76,-159.5 367.76,-166.5"/>
</g>
<!-- UserService -->
<g id="node8" class="node">
<title>UserService</title>
<ellipse fill="#fdb462" stroke="black" cx="82" cy="-104" rx="58.44" ry="18"/>
<text text-anchor="middle" x="82" y="-99.8" font-family="Times,serif" font-size="14.00">UserService</text>
</g>
<!-- UserService&#45;&gt;AplicativoModule -->
<g id="edge7" class="edge">
<title>UserService&#45;&gt;AplicativoModule</title>
<path fill="none" stroke="black" d="M82,-122.28C82,-143.32 82,-175 82,-175 82,-175 367.58,-175 367.58,-175"/>
<polygon fill="black" stroke="black" points="367.58,-178.5 377.58,-175 367.58,-171.5 367.58,-178.5"/>
</g>
</g>
</svg>
