<?xml version="1.0" encoding="UTF-8" standalone="no"?>
<!DOCTYPE svg PUBLIC "-//W3C//DTD SVG 1.1//EN"
 "http://www.w3.org/Graphics/SVG/1.1/DTD/svg11.dtd">
<!-- Generated by graphviz version 2.47.0 (20210316.0004)
 -->
<!-- Title: dependencies Pages: 1 -->
<svg width="504pt" height="211pt"
 viewBox="0.00 0.00 504.00 211.00" xmlns="http://www.w3.org/2000/svg" xmlns:xlink="http://www.w3.org/1999/xlink">
<g id="graph0" class="graph" transform="scale(1 1) rotate(0) translate(4 207)">
<title>dependencies</title>
<polygon fill="white" stroke="transparent" points="-4,4 -4,-207 500,-207 500,4 -4,4"/>
<text text-anchor="start" x="227.01" y="-42.4" font-family="Times-12" font-weight="bold" font-size="14.00">Legend</text>
<polygon fill="#ffffb3" stroke="transparent" points="14,-10 14,-30 34,-30 34,-10 14,-10"/>
<text text-anchor="start" x="37.63" y="-15.4" font-family="Times-12" font-size="14.00"> &#160;Declarations</text>
<polygon fill="#8dd3c7" stroke="transparent" points="127,-10 127,-30 147,-30 147,-10 127,-10"/>
<text text-anchor="start" x="150.73" y="-15.4" font-family="Times-12" font-size="14.00"> &#160;Module</text>
<polygon fill="#80b1d3" stroke="transparent" points="213,-10 213,-30 233,-30 233,-10 213,-10"/>
<text text-anchor="start" x="236.78" y="-15.4" font-family="Times-12" font-size="14.00"> &#160;Bootstrap</text>
<polygon fill="#fdb462" stroke="transparent" points="310,-10 310,-30 330,-30 330,-10 310,-10"/>
<text text-anchor="start" x="333.67" y="-15.4" font-family="Times-12" font-size="14.00"> &#160;Providers</text>
<polygon fill="#fb8072" stroke="transparent" points="406,-10 406,-30 426,-30 426,-10 406,-10"/>
<text text-anchor="start" x="429.73" y="-15.4" font-family="Times-12" font-size="14.00"> &#160;Exports</text>
<g id="clust1" class="cluster">
<title>cluster_AppModule</title>
<polygon fill="none" stroke="black" stroke-dasharray="1,5" points="77.5,-70 77.5,-195 418.5,-195 418.5,-70 77.5,-70"/>
</g>
<g id="clust6" class="cluster">
<title>cluster_AppModule_providers</title>
<polygon fill="none" stroke="black" points="85.5,-78 85.5,-130 410.5,-130 410.5,-78 85.5,-78"/>
</g>
<!-- AppService -->
<g id="node1" class="node">
<title>AppService</title>
<ellipse fill="#fdb462" stroke="black" cx="345.5" cy="-104" rx="56.74" ry="18"/>
<text text-anchor="middle" x="345.5" y="-99.8" font-family="Times,serif" font-size="14.00">AppService</text>
</g>
<!-- AppModule -->
<g id="node3" class="node">
<title>AppModule</title>
<polygon fill="#8dd3c7" stroke="black" points="305.16,-187 302.16,-191 281.16,-191 278.16,-187 221.84,-187 221.84,-151 305.16,-151 305.16,-187"/>
<text text-anchor="middle" x="263.5" y="-164.8" font-family="Times,serif" font-size="14.00">AppModule</text>
</g>
<!-- AppService&#45;&gt;AppModule -->
<g id="edge1" class="edge">
<title>AppService&#45;&gt;AppModule</title>
<path fill="none" stroke="black" d="M297.1,-113.59C297.1,-113.59 297.1,-140.75 297.1,-140.75"/>
<polygon fill="black" stroke="black" points="293.6,-140.75 297.1,-150.75 300.6,-140.75 293.6,-140.75"/>
</g>
<!-- ConsolidadoService -->
<g id="node2" class="node">
<title>ConsolidadoService</title>
<ellipse fill="#fdb462" stroke="black" cx="182.5" cy="-104" rx="88.63" ry="18"/>
<text text-anchor="middle" x="182.5" y="-99.8" font-family="Times,serif" font-size="14.00">ConsolidadoService</text>
</g>
<!-- ConsolidadoService&#45;&gt;AppModule -->
<g id="edge2" class="edge">
<title>ConsolidadoService&#45;&gt;AppModule</title>
<path fill="none" stroke="black" d="M246.49,-116.53C246.49,-116.53 246.49,-140.85 246.49,-140.85"/>
<polygon fill="black" stroke="black" points="242.99,-140.85 246.49,-150.85 249.99,-140.85 242.99,-140.85"/>
</g>
</g>
</svg>
