<?xml version="1.0" encoding="UTF-8" standalone="no"?>
<!DOCTYPE svg PUBLIC "-//W3C//DTD SVG 1.1//EN"
 "http://www.w3.org/Graphics/SVG/1.1/DTD/svg11.dtd">
<!-- Generated by graphviz version 2.47.0 (20210316.0004)
 -->
<!-- Title: dependencies Pages: 1 -->
<svg width="504pt" height="211pt"
 viewBox="0.00 0.00 504.00 211.00" xmlns="http://www.w3.org/2000/svg" xmlns:xlink="http://www.w3.org/1999/xlink">
<g id="graph0" class="graph" transform="scale(1 1) rotate(0) translate(4 207)">
<title>dependencies</title>
<polygon fill="white" stroke="transparent" points="-4,4 -4,-207 500,-207 500,4 -4,4"/>
<text text-anchor="start" x="227.01" y="-42.4" font-family="Times-12" font-weight="bold" font-size="14.00">Legend</text>
<polygon fill="#ffffb3" stroke="transparent" points="14,-10 14,-30 34,-30 34,-10 14,-10"/>
<text text-anchor="start" x="37.63" y="-15.4" font-family="Times-12" font-size="14.00"> &#160;Declarations</text>
<polygon fill="#8dd3c7" stroke="transparent" points="127,-10 127,-30 147,-30 147,-10 127,-10"/>
<text text-anchor="start" x="150.73" y="-15.4" font-family="Times-12" font-size="14.00"> &#160;Module</text>
<polygon fill="#80b1d3" stroke="transparent" points="213,-10 213,-30 233,-30 233,-10 213,-10"/>
<text text-anchor="start" x="236.78" y="-15.4" font-family="Times-12" font-size="14.00"> &#160;Bootstrap</text>
<polygon fill="#fdb462" stroke="transparent" points="310,-10 310,-30 330,-30 330,-10 310,-10"/>
<text text-anchor="start" x="333.67" y="-15.4" font-family="Times-12" font-size="14.00"> &#160;Providers</text>
<polygon fill="#fb8072" stroke="transparent" points="406,-10 406,-30 426,-30 426,-10 406,-10"/>
<text text-anchor="start" x="429.73" y="-15.4" font-family="Times-12" font-size="14.00"> &#160;Exports</text>
<g id="clust1" class="cluster">
<title>cluster_AplicativoModule</title>
<polygon fill="none" stroke="black" stroke-dasharray="1,5" points="72,-70 72,-195 424,-195 424,-70 72,-70"/>
</g>
<g id="clust6" class="cluster">
<title>cluster_AplicativoModule_providers</title>
<polygon fill="none" stroke="black" points="80,-78 80,-130 416,-130 416,-78 80,-78"/>
</g>
<!-- ContaService -->
<g id="node1" class="node">
<title>ContaService</title>
<ellipse fill="#fdb462" stroke="black" cx="345" cy="-104" rx="63.12" ry="18"/>
<text text-anchor="middle" x="345" y="-99.8" font-family="Times,serif" font-size="14.00">ContaService</text>
</g>
<!-- AplicativoModule -->
<g id="node3" class="node">
<title>AplicativoModule</title>
<polygon fill="#8dd3c7" stroke="black" points="319.15,-187 316.15,-191 295.15,-191 292.15,-187 200.85,-187 200.85,-151 319.15,-151 319.15,-187"/>
<text text-anchor="middle" x="260" y="-164.8" font-family="Times,serif" font-size="14.00">AplicativoModule</text>
</g>
<!-- ContaService&#45;&gt;AplicativoModule -->
<g id="edge1" class="edge">
<title>ContaService&#45;&gt;AplicativoModule</title>
<path fill="none" stroke="black" d="M300.63,-116.84C300.63,-116.84 300.63,-140.52 300.63,-140.52"/>
<polygon fill="black" stroke="black" points="297.13,-140.52 300.63,-150.52 304.13,-140.52 297.13,-140.52"/>
</g>
<!-- LancamentoService -->
<g id="node2" class="node">
<title>LancamentoService</title>
<ellipse fill="#fdb462" stroke="black" cx="176" cy="-104" rx="87.94" ry="18"/>
<text text-anchor="middle" x="176" y="-99.8" font-family="Times,serif" font-size="14.00">LancamentoService</text>
</g>
<!-- LancamentoService&#45;&gt;AplicativoModule -->
<g id="edge2" class="edge">
<title>LancamentoService&#45;&gt;AplicativoModule</title>
<path fill="none" stroke="black" d="M232.2,-118.1C232.2,-118.1 232.2,-140.72 232.2,-140.72"/>
<polygon fill="black" stroke="black" points="228.7,-140.72 232.2,-150.72 235.7,-140.72 228.7,-140.72"/>
</g>
</g>
</svg>
