<?xml version="1.0" encoding="UTF-8" standalone="no"?>
<!DOCTYPE svg PUBLIC "-//W3C//DTD SVG 1.1//EN"
 "http://www.w3.org/Graphics/SVG/1.1/DTD/svg11.dtd">
<!-- Generated by graphviz version 2.47.0 (20210316.0004)
 -->
<!-- Title: dependencies Pages: 1 -->
<svg width="1067pt" height="287pt"
 viewBox="0.00 0.00 1067.00 287.00" xmlns="http://www.w3.org/2000/svg" xmlns:xlink="http://www.w3.org/1999/xlink">
<g id="graph0" class="graph" transform="scale(1 1) rotate(0) translate(4 283)">
<title>dependencies</title>
<polygon fill="white" stroke="transparent" points="-4,4 -4,-283 1063,-283 1063,4 -4,4"/>
<text text-anchor="start" x="508.51" y="-42.4" font-family="Times-12" font-weight="bold" font-size="14.00">Legend</text>
<polygon fill="#ffffb3" stroke="transparent" points="295.5,-10 295.5,-30 315.5,-30 315.5,-10 295.5,-10"/>
<text text-anchor="start" x="319.13" y="-15.4" font-family="Times-12" font-size="14.00"> &#160;Declarations</text>
<polygon fill="#8dd3c7" stroke="transparent" points="408.5,-10 408.5,-30 428.5,-30 428.5,-10 408.5,-10"/>
<text text-anchor="start" x="432.23" y="-15.4" font-family="Times-12" font-size="14.00"> &#160;Module</text>
<polygon fill="#80b1d3" stroke="transparent" points="494.5,-10 494.5,-30 514.5,-30 514.5,-10 494.5,-10"/>
<text text-anchor="start" x="518.28" y="-15.4" font-family="Times-12" font-size="14.00"> &#160;Bootstrap</text>
<polygon fill="#fdb462" stroke="transparent" points="591.5,-10 591.5,-30 611.5,-30 611.5,-10 591.5,-10"/>
<text text-anchor="start" x="615.17" y="-15.4" font-family="Times-12" font-size="14.00"> &#160;Providers</text>
<polygon fill="#fb8072" stroke="transparent" points="687.5,-10 687.5,-30 707.5,-30 707.5,-10 687.5,-10"/>
<text text-anchor="start" x="711.23" y="-15.4" font-family="Times-12" font-size="14.00"> &#160;Exports</text>
<g id="clust1" class="cluster">
<title>cluster_AplicativoModule</title>
<polygon fill="none" stroke="black" stroke-dasharray="1,5" points="162,-70 162,-271 1051,-271 1051,-70 162,-70"/>
</g>
<g id="clust4" class="cluster">
<title>cluster_AplicativoModule_exports</title>
<polygon fill="none" stroke="black" points="376,-211 376,-263 642,-263 642,-211 376,-211"/>
</g>
<g id="clust6" class="cluster">
<title>cluster_AplicativoModule_providers</title>
<polygon fill="none" stroke="black" points="170,-78 170,-130 1043,-130 1043,-78 170,-78"/>
</g>
<g id="clust7" class="cluster">
<title>cluster_AppModule</title>
<polygon fill="none" stroke="black" stroke-dasharray="1,5" points="8,-138 8,-263 154,-263 154,-138 8,-138"/>
</g>
<g id="clust12" class="cluster">
<title>cluster_AppModule_providers</title>
<polygon fill="none" stroke="black" points="16,-146 16,-198 146,-198 146,-146 16,-146"/>
</g>
<!-- AuthenticationService  -->
<g id="node1" class="node">
<title>AuthenticationService </title>
<polygon fill="#fb8072" stroke="black" points="634.18,-255 489.82,-255 489.82,-219 634.18,-219 634.18,-255"/>
<text text-anchor="middle" x="562" y="-232.8" font-family="Times,serif" font-size="14.00">AuthenticationService </text>
</g>
<!-- UserService  -->
<g id="node2" class="node">
<title>UserService </title>
<polygon fill="#fb8072" stroke="black" points="471.9,-255 384.1,-255 384.1,-219 471.9,-219 471.9,-255"/>
<text text-anchor="middle" x="428" y="-232.8" font-family="Times,serif" font-size="14.00">UserService </text>
</g>
<!-- AplicativoModule -->
<g id="node3" class="node">
<title>AplicativoModule</title>
<polygon fill="#8dd3c7" stroke="black" points="554.15,-190 551.15,-194 530.15,-194 527.15,-190 435.85,-190 435.85,-154 554.15,-154 554.15,-190"/>
<text text-anchor="middle" x="495" y="-167.8" font-family="Times,serif" font-size="14.00">AplicativoModule</text>
</g>
<!-- AplicativoModule&#45;&gt;AuthenticationService  -->
<g id="edge1" class="edge">
<title>AplicativoModule&#45;&gt;AuthenticationService </title>
<path fill="none" stroke="black" stroke-dasharray="5,2" d="M521.99,-190.11C521.99,-190.11 521.99,-208.99 521.99,-208.99"/>
<polygon fill="black" stroke="black" points="518.49,-208.99 521.99,-218.99 525.49,-208.99 518.49,-208.99"/>
</g>
<!-- AplicativoModule&#45;&gt;UserService  -->
<g id="edge2" class="edge">
<title>AplicativoModule&#45;&gt;UserService </title>
<path fill="none" stroke="black" stroke-dasharray="5,2" d="M453.81,-190.11C453.81,-190.11 453.81,-208.99 453.81,-208.99"/>
<polygon fill="black" stroke="black" points="450.31,-208.99 453.81,-218.99 457.31,-208.99 450.31,-208.99"/>
</g>
<!-- AppModule -->
<g id="node9" class="node">
<title>AppModule</title>
<polygon fill="#8dd3c7" stroke="black" points="133.66,-255 130.66,-259 109.66,-259 106.66,-255 50.34,-255 50.34,-219 133.66,-219 133.66,-255"/>
<text text-anchor="middle" x="92" y="-232.8" font-family="Times,serif" font-size="14.00">AppModule</text>
</g>
<!-- AplicativoModule&#45;&gt;AppModule -->
<g id="edge8" class="edge">
<title>AplicativoModule&#45;&gt;AppModule</title>
<path fill="none" stroke="black" d="M435.71,-178C394.97,-178 348.2,-178 348.2,-178 348.2,-178 348.2,-237 348.2,-237 348.2,-237 143.73,-237 143.73,-237"/>
<polygon fill="black" stroke="black" points="143.73,-233.5 133.73,-237 143.73,-240.5 143.73,-233.5"/>
</g>
<!-- AuthenticationService -->
<g id="node4" class="node">
<title>AuthenticationService</title>
<ellipse fill="#fdb462" stroke="black" cx="938" cy="-104" rx="97.27" ry="18"/>
<text text-anchor="middle" x="938" y="-99.8" font-family="Times,serif" font-size="14.00">AuthenticationService</text>
</g>
<!-- AuthenticationService&#45;&gt;AplicativoModule -->
<g id="edge3" class="edge">
<title>AuthenticationService&#45;&gt;AplicativoModule</title>
<path fill="none" stroke="black" d="M938,-122.29C938,-144.21 938,-178 938,-178 938,-178 564.29,-178 564.29,-178"/>
<polygon fill="black" stroke="black" points="564.29,-174.5 554.29,-178 564.29,-181.5 564.29,-174.5"/>
</g>
<!-- ContaService -->
<g id="node5" class="node">
<title>ContaService</title>
<ellipse fill="#fdb462" stroke="black" cx="760" cy="-104" rx="63.12" ry="18"/>
<text text-anchor="middle" x="760" y="-99.8" font-family="Times,serif" font-size="14.00">ContaService</text>
</g>
<!-- ContaService&#45;&gt;AplicativoModule -->
<g id="edge4" class="edge">
<title>ContaService&#45;&gt;AplicativoModule</title>
<path fill="none" stroke="black" d="M760,-122.27C760,-140.56 760,-166 760,-166 760,-166 564.47,-166 564.47,-166"/>
<polygon fill="black" stroke="black" points="564.47,-162.5 554.47,-166 564.47,-169.5 564.47,-162.5"/>
</g>
<!-- LancamentoService -->
<g id="node6" class="node">
<title>LancamentoService</title>
<ellipse fill="#fdb462" stroke="black" cx="591" cy="-104" rx="87.94" ry="18"/>
<text text-anchor="middle" x="591" y="-99.8" font-family="Times,serif" font-size="14.00">LancamentoService</text>
</g>
<!-- LancamentoService&#45;&gt;AplicativoModule -->
<g id="edge5" class="edge">
<title>LancamentoService&#45;&gt;AplicativoModule</title>
<path fill="none" stroke="black" d="M528.8,-116.79C528.8,-116.79 528.8,-143.88 528.8,-143.88"/>
<polygon fill="black" stroke="black" points="525.3,-143.88 528.8,-153.88 532.3,-143.88 525.3,-143.88"/>
</g>
<!-- NotificationService -->
<g id="node7" class="node">
<title>NotificationService</title>
<ellipse fill="#fdb462" stroke="black" cx="399" cy="-104" rx="86.81" ry="18"/>
<text text-anchor="middle" x="399" y="-99.8" font-family="Times,serif" font-size="14.00">NotificationService</text>
</g>
<!-- NotificationService&#45;&gt;AplicativoModule -->
<g id="edge6" class="edge">
<title>NotificationService&#45;&gt;AplicativoModule</title>
<path fill="none" stroke="black" d="M460.67,-116.79C460.67,-116.79 460.67,-143.88 460.67,-143.88"/>
<polygon fill="black" stroke="black" points="457.17,-143.88 460.67,-153.88 464.17,-143.88 457.17,-143.88"/>
</g>
<!-- UserService -->
<g id="node8" class="node">
<title>UserService</title>
<ellipse fill="#fdb462" stroke="black" cx="236" cy="-104" rx="58.44" ry="18"/>
<text text-anchor="middle" x="236" y="-99.8" font-family="Times,serif" font-size="14.00">UserService</text>
</g>
<!-- UserService&#45;&gt;AplicativoModule -->
<g id="edge7" class="edge">
<title>UserService&#45;&gt;AplicativoModule</title>
<path fill="none" stroke="black" d="M236,-122.27C236,-140.56 236,-166 236,-166 236,-166 425.58,-166 425.58,-166"/>
<polygon fill="black" stroke="black" points="425.58,-169.5 435.58,-166 425.58,-162.5 425.58,-169.5"/>
</g>
<!-- AppService -->
<g id="node10" class="node">
<title>AppService</title>
<ellipse fill="#fdb462" stroke="black" cx="81" cy="-172" rx="56.74" ry="18"/>
<text text-anchor="middle" x="81" y="-167.8" font-family="Times,serif" font-size="14.00">AppService</text>
</g>
<!-- AppService&#45;&gt;AppModule -->
<g id="edge9" class="edge">
<title>AppService&#45;&gt;AppModule</title>
<path fill="none" stroke="black" d="M92,-189.76C92,-189.76 92,-208.81 92,-208.81"/>
<polygon fill="black" stroke="black" points="88.5,-208.81 92,-218.81 95.5,-208.81 88.5,-208.81"/>
</g>
</g>
</svg>
