<?xml version="1.0" encoding="UTF-8" standalone="no"?>
<!DOCTYPE svg PUBLIC "-//W3C//DTD SVG 1.1//EN"
 "http://www.w3.org/Graphics/SVG/1.1/DTD/svg11.dtd">
<!-- Generated by graphviz version 2.47.0 (20210316.0004)
 -->
<!-- Title: dependencies Pages: 1 -->
<svg width="1948pt" height="284pt"
 viewBox="0.00 0.00 1948.00 284.00" xmlns="http://www.w3.org/2000/svg" xmlns:xlink="http://www.w3.org/1999/xlink">
<g id="graph0" class="graph" transform="scale(1 1) rotate(0) translate(4 280)">
<title>dependencies</title>
<polygon fill="white" stroke="transparent" points="-4,4 -4,-280 1944,-280 1944,4 -4,4"/>
<text text-anchor="start" x="949.01" y="-42.4" font-family="Times-12" font-weight="bold" font-size="14.00">Legend</text>
<polygon fill="#ffffb3" stroke="transparent" points="736,-10 736,-30 756,-30 756,-10 736,-10"/>
<text text-anchor="start" x="759.63" y="-15.4" font-family="Times-12" font-size="14.00"> &#160;Declarations</text>
<polygon fill="#8dd3c7" stroke="transparent" points="849,-10 849,-30 869,-30 869,-10 849,-10"/>
<text text-anchor="start" x="872.73" y="-15.4" font-family="Times-12" font-size="14.00"> &#160;Module</text>
<polygon fill="#80b1d3" stroke="transparent" points="935,-10 935,-30 955,-30 955,-10 935,-10"/>
<text text-anchor="start" x="958.78" y="-15.4" font-family="Times-12" font-size="14.00"> &#160;Bootstrap</text>
<polygon fill="#fdb462" stroke="transparent" points="1032,-10 1032,-30 1052,-30 1052,-10 1032,-10"/>
<text text-anchor="start" x="1055.67" y="-15.4" font-family="Times-12" font-size="14.00"> &#160;Providers</text>
<polygon fill="#fb8072" stroke="transparent" points="1128,-10 1128,-30 1148,-30 1148,-10 1128,-10"/>
<text text-anchor="start" x="1151.73" y="-15.4" font-family="Times-12" font-size="14.00"> &#160;Exports</text>
<g id="clust1" class="cluster">
<title>cluster_CoreModule</title>
<polygon fill="none" stroke="black" stroke-dasharray="1,5" points="8,-70 8,-268 1932,-268 1932,-70 8,-70"/>
</g>
<g id="clust12" class="cluster">
<title>cluster_CoreModule_exports</title>
<polygon fill="none" stroke="black" points="246,-208 246,-260 1634,-260 1634,-208 246,-208"/>
</g>
<g id="clust11" class="cluster">
<title>cluster_CoreModule_imports</title>
<polygon fill="none" stroke="black" points="1628,-78 1628,-130 1924,-130 1924,-78 1628,-78"/>
</g>
<g id="clust14" class="cluster">
<title>cluster_CoreModule_providers</title>
<polygon fill="none" stroke="black" points="1253,-78 1253,-130 1620,-130 1620,-78 1253,-78"/>
</g>
<g id="clust2" class="cluster">
<title>cluster_CoreModule_declarations</title>
<polygon fill="none" stroke="black" points="16,-78 16,-130 1245,-130 1245,-78 16,-78"/>
</g>
<!-- AutenticacaoComponent -->
<g id="node1" class="node">
<title>AutenticacaoComponent</title>
<polygon fill="#ffffb3" stroke="black" points="1236.68,-122 1081.32,-122 1081.32,-86 1236.68,-86 1236.68,-122"/>
<text text-anchor="middle" x="1159" y="-99.8" font-family="Times,serif" font-size="14.00">AutenticacaoComponent</text>
</g>
<!-- CoreModule -->
<g id="node9" class="node">
<title>CoreModule</title>
<polygon fill="#8dd3c7" stroke="black" points="972.26,-187 969.26,-191 948.26,-191 945.26,-187 885.74,-187 885.74,-151 972.26,-151 972.26,-187"/>
<text text-anchor="middle" x="929" y="-164.8" font-family="Times,serif" font-size="14.00">CoreModule</text>
</g>
<!-- AutenticacaoComponent&#45;&gt;CoreModule -->
<g id="edge1" class="edge">
<title>AutenticacaoComponent&#45;&gt;CoreModule</title>
<path fill="none" stroke="black" d="M1122.88,-122.12C1122.88,-136.78 1122.88,-155 1122.88,-155 1122.88,-155 982.51,-155 982.51,-155"/>
<polygon fill="black" stroke="black" points="982.51,-151.5 972.51,-155 982.51,-158.5 982.51,-151.5"/>
</g>
<!-- CreditosComponent -->
<g id="node2" class="node">
<title>CreditosComponent</title>
<polygon fill="#ffffb3" stroke="black" points="1063.27,-122 934.73,-122 934.73,-86 1063.27,-86 1063.27,-122"/>
<text text-anchor="middle" x="999" y="-99.8" font-family="Times,serif" font-size="14.00">CreditosComponent</text>
</g>
<!-- CreditosComponent&#45;&gt;CoreModule -->
<g id="edge2" class="edge">
<title>CreditosComponent&#45;&gt;CoreModule</title>
<path fill="none" stroke="black" d="M953.5,-122.11C953.5,-122.11 953.5,-140.99 953.5,-140.99"/>
<polygon fill="black" stroke="black" points="950,-140.99 953.5,-150.99 957,-140.99 950,-140.99"/>
</g>
<!-- LoginComponent -->
<g id="node3" class="node">
<title>LoginComponent</title>
<polygon fill="#ffffb3" stroke="black" points="916.28,-122 801.72,-122 801.72,-86 916.28,-86 916.28,-122"/>
<text text-anchor="middle" x="859" y="-99.8" font-family="Times,serif" font-size="14.00">LoginComponent</text>
</g>
<!-- LoginComponent&#45;&gt;CoreModule -->
<g id="edge3" class="edge">
<title>LoginComponent&#45;&gt;CoreModule</title>
<path fill="none" stroke="black" d="M901,-122.11C901,-122.11 901,-140.99 901,-140.99"/>
<polygon fill="black" stroke="black" points="897.5,-140.99 901,-150.99 904.5,-140.99 897.5,-140.99"/>
</g>
<!-- MainContentComponent -->
<g id="node4" class="node">
<title>MainContentComponent</title>
<polygon fill="#ffffb3" stroke="black" points="783.71,-122 628.29,-122 628.29,-86 783.71,-86 783.71,-122"/>
<text text-anchor="middle" x="706" y="-99.8" font-family="Times,serif" font-size="14.00">MainContentComponent</text>
</g>
<!-- MainContentComponent&#45;&gt;CoreModule -->
<g id="edge4" class="edge">
<title>MainContentComponent&#45;&gt;CoreModule</title>
<path fill="none" stroke="black" d="M760.9,-122.12C760.9,-136.78 760.9,-155 760.9,-155 760.9,-155 875.71,-155 875.71,-155"/>
<polygon fill="black" stroke="black" points="875.71,-158.5 885.71,-155 875.71,-151.5 875.71,-158.5"/>
</g>
<!-- MenuComponent -->
<g id="node5" class="node">
<title>MenuComponent</title>
<polygon fill="#ffffb3" stroke="black" points="609.99,-122 496.01,-122 496.01,-86 609.99,-86 609.99,-122"/>
<text text-anchor="middle" x="553" y="-99.8" font-family="Times,serif" font-size="14.00">MenuComponent</text>
</g>
<!-- MenuComponent&#45;&gt;CoreModule -->
<g id="edge5" class="edge">
<title>MenuComponent&#45;&gt;CoreModule</title>
<path fill="none" stroke="black" d="M593.91,-122.01C593.91,-138.05 593.91,-159 593.91,-159 593.91,-159 875.54,-159 875.54,-159"/>
<polygon fill="black" stroke="black" points="875.54,-162.5 885.54,-159 875.54,-155.5 875.54,-162.5"/>
</g>
<!-- RecuperarComponent -->
<g id="node6" class="node">
<title>RecuperarComponent</title>
<polygon fill="#ffffb3" stroke="black" points="478.35,-122 339.65,-122 339.65,-86 478.35,-86 478.35,-122"/>
<text text-anchor="middle" x="409" y="-99.8" font-family="Times,serif" font-size="14.00">RecuperarComponent</text>
</g>
<!-- RecuperarComponent&#45;&gt;CoreModule -->
<g id="edge6" class="edge">
<title>RecuperarComponent&#45;&gt;CoreModule</title>
<path fill="none" stroke="black" d="M455.31,-122.03C455.31,-139.06 455.31,-162 455.31,-162 455.31,-162 875.71,-162 875.71,-162"/>
<polygon fill="black" stroke="black" points="875.71,-165.5 885.71,-162 875.71,-158.5 875.71,-165.5"/>
</g>
<!-- RegistoComponent -->
<g id="node7" class="node">
<title>RegistoComponent</title>
<polygon fill="#ffffb3" stroke="black" points="322.11,-122 197.89,-122 197.89,-86 322.11,-86 322.11,-122"/>
<text text-anchor="middle" x="260" y="-99.8" font-family="Times,serif" font-size="14.00">RegistoComponent</text>
</g>
<!-- RegistoComponent&#45;&gt;CoreModule -->
<g id="edge7" class="edge">
<title>RegistoComponent&#45;&gt;CoreModule</title>
<path fill="none" stroke="black" d="M287.96,-122.27C287.96,-140.56 287.96,-166 287.96,-166 287.96,-166 875.69,-166 875.69,-166"/>
<polygon fill="black" stroke="black" points="875.69,-169.5 885.69,-166 875.69,-162.5 875.69,-169.5"/>
</g>
<!-- SplashScreenComponent -->
<g id="node8" class="node">
<title>SplashScreenComponent</title>
<polygon fill="#ffffb3" stroke="black" points="180.25,-122 23.75,-122 23.75,-86 180.25,-86 180.25,-122"/>
<text text-anchor="middle" x="102" y="-99.8" font-family="Times,serif" font-size="14.00">SplashScreenComponent</text>
</g>
<!-- SplashScreenComponent&#45;&gt;CoreModule -->
<g id="edge8" class="edge">
<title>SplashScreenComponent&#45;&gt;CoreModule</title>
<path fill="none" stroke="black" d="M102,-122.11C102,-141.34 102,-169 102,-169 102,-169 875.7,-169 875.7,-169"/>
<polygon fill="black" stroke="black" points="875.7,-172.5 885.7,-169 875.7,-165.5 875.7,-172.5"/>
</g>
<!-- AutenticacaoComponent  -->
<g id="node12" class="node">
<title>AutenticacaoComponent </title>
<polygon fill="#fb8072" stroke="black" points="1626.18,-252 1467.82,-252 1467.82,-216 1626.18,-216 1626.18,-252"/>
<text text-anchor="middle" x="1547" y="-229.8" font-family="Times,serif" font-size="14.00">AutenticacaoComponent </text>
</g>
<!-- CoreModule&#45;&gt;AutenticacaoComponent  -->
<g id="edge11" class="edge">
<title>CoreModule&#45;&gt;AutenticacaoComponent </title>
<path fill="none" stroke="black" stroke-dasharray="5,2" d="M972.45,-173C1112.05,-173 1540.02,-173 1540.02,-173 1540.02,-173 1540.02,-205.7 1540.02,-205.7"/>
<polygon fill="black" stroke="black" points="1536.52,-205.7 1540.02,-215.7 1543.52,-205.7 1536.52,-205.7"/>
</g>
<!-- CreditosComponent  -->
<g id="node13" class="node">
<title>CreditosComponent </title>
<polygon fill="#fb8072" stroke="black" points="1450.27,-252 1317.73,-252 1317.73,-216 1450.27,-216 1450.27,-252"/>
<text text-anchor="middle" x="1384" y="-229.8" font-family="Times,serif" font-size="14.00">CreditosComponent </text>
</g>
<!-- CoreModule&#45;&gt;CreditosComponent  -->
<g id="edge12" class="edge">
<title>CoreModule&#45;&gt;CreditosComponent </title>
<path fill="none" stroke="black" stroke-dasharray="5,2" d="M972.56,-177C1081.8,-177 1358.68,-177 1358.68,-177 1358.68,-177 1358.68,-205.96 1358.68,-205.96"/>
<polygon fill="black" stroke="black" points="1355.18,-205.96 1358.68,-215.96 1362.18,-205.96 1355.18,-205.96"/>
</g>
<!-- LoginComponent  -->
<g id="node14" class="node">
<title>LoginComponent </title>
<polygon fill="#fb8072" stroke="black" points="1300.28,-252 1181.72,-252 1181.72,-216 1300.28,-216 1300.28,-252"/>
<text text-anchor="middle" x="1241" y="-229.8" font-family="Times,serif" font-size="14.00">LoginComponent </text>
</g>
<!-- CoreModule&#45;&gt;LoginComponent  -->
<g id="edge13" class="edge">
<title>CoreModule&#45;&gt;LoginComponent </title>
<path fill="none" stroke="black" stroke-dasharray="5,2" d="M972.48,-180C1051.19,-180 1209.23,-180 1209.23,-180 1209.23,-180 1209.23,-205.72 1209.23,-205.72"/>
<polygon fill="black" stroke="black" points="1205.73,-205.72 1209.23,-215.72 1212.73,-205.72 1205.73,-205.72"/>
</g>
<!-- MainContentComponent  -->
<g id="node15" class="node">
<title>MainContentComponent </title>
<polygon fill="#fb8072" stroke="black" points="1164.21,-252 1005.79,-252 1005.79,-216 1164.21,-216 1164.21,-252"/>
<text text-anchor="middle" x="1085" y="-229.8" font-family="Times,serif" font-size="14.00">MainContentComponent </text>
</g>
<!-- CoreModule&#45;&gt;MainContentComponent  -->
<g id="edge14" class="edge">
<title>CoreModule&#45;&gt;MainContentComponent </title>
<path fill="none" stroke="black" stroke-dasharray="5,2" d="M972.53,-184C1001.59,-184 1034.51,-184 1034.51,-184 1034.51,-184 1034.51,-205.95 1034.51,-205.95"/>
<polygon fill="black" stroke="black" points="1031.01,-205.95 1034.51,-215.95 1038.01,-205.95 1031.01,-205.95"/>
</g>
<!-- MenuComponent  -->
<g id="node16" class="node">
<title>MenuComponent </title>
<polygon fill="#fb8072" stroke="black" points="987.99,-252 870.01,-252 870.01,-216 987.99,-216 987.99,-252"/>
<text text-anchor="middle" x="929" y="-229.8" font-family="Times,serif" font-size="14.00">MenuComponent </text>
</g>
<!-- CoreModule&#45;&gt;MenuComponent  -->
<g id="edge15" class="edge">
<title>CoreModule&#45;&gt;MenuComponent </title>
<path fill="none" stroke="black" stroke-dasharray="5,2" d="M929,-187.11C929,-187.11 929,-205.99 929,-205.99"/>
<polygon fill="black" stroke="black" points="925.5,-205.99 929,-215.99 932.5,-205.99 925.5,-205.99"/>
</g>
<!-- PrimeNgModule  -->
<g id="node17" class="node">
<title>PrimeNgModule </title>
<polygon fill="#fb8072" stroke="black" points="851.6,-252 738.4,-252 738.4,-216 851.6,-216 851.6,-252"/>
<text text-anchor="middle" x="795" y="-229.8" font-family="Times,serif" font-size="14.00">PrimeNgModule </text>
</g>
<!-- CoreModule&#45;&gt;PrimeNgModule  -->
<g id="edge16" class="edge">
<title>CoreModule&#45;&gt;PrimeNgModule </title>
<path fill="none" stroke="black" stroke-dasharray="5,2" d="M885.62,-184C857.74,-184 826.7,-184 826.7,-184 826.7,-184 826.7,-205.95 826.7,-205.95"/>
<polygon fill="black" stroke="black" points="823.21,-205.95 826.7,-215.95 830.21,-205.95 823.21,-205.95"/>
</g>
<!-- RecuperarComponent  -->
<g id="node18" class="node">
<title>RecuperarComponent </title>
<polygon fill="#fb8072" stroke="black" points="720.35,-252 577.65,-252 577.65,-216 720.35,-216 720.35,-252"/>
<text text-anchor="middle" x="649" y="-229.8" font-family="Times,serif" font-size="14.00">RecuperarComponent </text>
</g>
<!-- CoreModule&#45;&gt;RecuperarComponent  -->
<g id="edge17" class="edge">
<title>CoreModule&#45;&gt;RecuperarComponent </title>
<path fill="none" stroke="black" stroke-dasharray="5,2" d="M885.5,-180C812.75,-180 674.28,-180 674.28,-180 674.28,-180 674.28,-205.72 674.28,-205.72"/>
<polygon fill="black" stroke="black" points="670.78,-205.72 674.28,-215.72 677.78,-205.72 670.78,-205.72"/>
</g>
<!-- RegistoComponent  -->
<g id="node19" class="node">
<title>RegistoComponent </title>
<polygon fill="#fb8072" stroke="black" points="559.61,-252 432.39,-252 432.39,-216 559.61,-216 559.61,-252"/>
<text text-anchor="middle" x="496" y="-229.8" font-family="Times,serif" font-size="14.00">RegistoComponent </text>
</g>
<!-- CoreModule&#45;&gt;RegistoComponent  -->
<g id="edge18" class="edge">
<title>CoreModule&#45;&gt;RegistoComponent </title>
<path fill="none" stroke="black" stroke-dasharray="5,2" d="M885.69,-177C781.98,-177 527.9,-177 527.9,-177 527.9,-177 527.9,-205.96 527.9,-205.96"/>
<polygon fill="black" stroke="black" points="524.4,-205.96 527.9,-215.96 531.4,-205.96 524.4,-205.96"/>
</g>
<!-- SplashScreenComponent  -->
<g id="node20" class="node">
<title>SplashScreenComponent </title>
<polygon fill="#fb8072" stroke="black" points="414.25,-252 253.75,-252 253.75,-216 414.25,-216 414.25,-252"/>
<text text-anchor="middle" x="334" y="-229.8" font-family="Times,serif" font-size="14.00">SplashScreenComponent </text>
</g>
<!-- CoreModule&#45;&gt;SplashScreenComponent  -->
<g id="edge19" class="edge">
<title>CoreModule&#45;&gt;SplashScreenComponent </title>
<path fill="none" stroke="black" stroke-dasharray="5,2" d="M885.67,-173C755.51,-173 376.85,-173 376.85,-173 376.85,-173 376.85,-205.7 376.85,-205.7"/>
<polygon fill="black" stroke="black" points="373.35,-205.7 376.85,-215.7 380.35,-205.7 373.35,-205.7"/>
</g>
<!-- AngularMaterialModule -->
<g id="node10" class="node">
<title>AngularMaterialModule</title>
<polygon fill="#8dd3c7" stroke="black" points="1916.34,-122 1913.34,-126 1892.34,-126 1889.34,-122 1763.66,-122 1763.66,-86 1916.34,-86 1916.34,-122"/>
<text text-anchor="middle" x="1840" y="-99.8" font-family="Times,serif" font-size="14.00">AngularMaterialModule</text>
</g>
<!-- AngularMaterialModule&#45;&gt;CoreModule -->
<g id="edge9" class="edge">
<title>AngularMaterialModule&#45;&gt;CoreModule</title>
<path fill="none" stroke="black" d="M1840,-122.11C1840,-141.34 1840,-169 1840,-169 1840,-169 982.33,-169 982.33,-169"/>
<polygon fill="black" stroke="black" points="982.33,-165.5 972.33,-169 982.33,-172.5 982.33,-165.5"/>
</g>
<!-- PrimeNgModule -->
<g id="node11" class="node">
<title>PrimeNgModule</title>
<polygon fill="#8dd3c7" stroke="black" points="1746.1,-122 1743.1,-126 1722.1,-126 1719.1,-122 1635.9,-122 1635.9,-86 1746.1,-86 1746.1,-122"/>
<text text-anchor="middle" x="1691" y="-99.8" font-family="Times,serif" font-size="14.00">PrimeNgModule</text>
</g>
<!-- PrimeNgModule&#45;&gt;CoreModule -->
<g id="edge10" class="edge">
<title>PrimeNgModule&#45;&gt;CoreModule</title>
<path fill="none" stroke="black" d="M1691,-122.27C1691,-140.56 1691,-166 1691,-166 1691,-166 982.43,-166 982.43,-166"/>
<polygon fill="black" stroke="black" points="982.43,-162.5 972.43,-166 982.43,-169.5 982.43,-162.5"/>
</g>
<!-- AuthenticationService -->
<g id="node21" class="node">
<title>AuthenticationService</title>
<ellipse fill="#fdb462" stroke="black" cx="1515" cy="-104" rx="97.27" ry="18"/>
<text text-anchor="middle" x="1515" y="-99.8" font-family="Times,serif" font-size="14.00">AuthenticationService</text>
</g>
<!-- AuthenticationService&#45;&gt;CoreModule -->
<g id="edge20" class="edge">
<title>AuthenticationService&#45;&gt;CoreModule</title>
<path fill="none" stroke="black" d="M1433.88,-114.1C1433.88,-130.72 1433.88,-162 1433.88,-162 1433.88,-162 982.48,-162 982.48,-162"/>
<polygon fill="black" stroke="black" points="982.48,-158.5 972.48,-162 982.48,-165.5 982.48,-158.5"/>
</g>
<!-- SessionService -->
<g id="node22" class="node">
<title>SessionService</title>
<ellipse fill="#fdb462" stroke="black" cx="1330" cy="-104" rx="69.5" ry="18"/>
<text text-anchor="middle" x="1330" y="-99.8" font-family="Times,serif" font-size="14.00">SessionService</text>
</g>
<!-- SessionService&#45;&gt;CoreModule -->
<g id="edge21" class="edge">
<title>SessionService&#45;&gt;CoreModule</title>
<path fill="none" stroke="black" d="M1280.32,-116.76C1280.32,-133 1280.32,-159 1280.32,-159 1280.32,-159 982.43,-159 982.43,-159"/>
<polygon fill="black" stroke="black" points="982.43,-155.5 972.43,-159 982.43,-162.5 982.43,-155.5"/>
</g>
</g>
</svg>
