<?xml version="1.0" encoding="UTF-8" standalone="no"?>
<!DOCTYPE svg PUBLIC "-//W3C//DTD SVG 1.1//EN"
 "http://www.w3.org/Graphics/SVG/1.1/DTD/svg11.dtd">
<!-- Generated by graphviz version 2.47.0 (20210316.0004)
 -->
<!-- Title: dependencies Pages: 1 -->
<svg width="1948pt" height="284pt"
 viewBox="0.00 0.00 1948.00 284.00" xmlns="http://www.w3.org/2000/svg" xmlns:xlink="http://www.w3.org/1999/xlink">
<g id="graph0" class="graph" transform="scale(1 1) rotate(0) translate(4 280)">
<title>dependencies</title>
<polygon fill="white" stroke="transparent" points="-4,4 -4,-280 1944,-280 1944,4 -4,4"/>
<text text-anchor="start" x="949.01" y="-42.4" font-family="Times-12" font-weight="bold" font-size="14.00">Legend</text>
<polygon fill="#ffffb3" stroke="transparent" points="736,-10 736,-30 756,-30 756,-10 736,-10"/>
<text text-anchor="start" x="759.63" y="-15.4" font-family="Times-12" font-size="14.00"> &#160;Declarations</text>
<polygon fill="#8dd3c7" stroke="transparent" points="849,-10 849,-30 869,-30 869,-10 849,-10"/>
<text text-anchor="start" x="872.73" y="-15.4" font-family="Times-12" font-size="14.00"> &#160;Module</text>
<polygon fill="#80b1d3" stroke="transparent" points="935,-10 935,-30 955,-30 955,-10 935,-10"/>
<text text-anchor="start" x="958.78" y="-15.4" font-family="Times-12" font-size="14.00"> &#160;Bootstrap</text>
<polygon fill="#fdb462" stroke="transparent" points="1032,-10 1032,-30 1052,-30 1052,-10 1032,-10"/>
<text text-anchor="start" x="1055.67" y="-15.4" font-family="Times-12" font-size="14.00"> &#160;Providers</text>
<polygon fill="#fb8072" stroke="transparent" points="1128,-10 1128,-30 1148,-30 1148,-10 1128,-10"/>
<text text-anchor="start" x="1151.73" y="-15.4" font-family="Times-12" font-size="14.00"> &#160;Exports</text>
<g id="clust1" class="cluster">
<title>cluster_CoreModule</title>
<polygon fill="none" stroke="black" stroke-dasharray="1,5" points="8,-70 8,-268 1932,-268 1932,-70 8,-70"/>
</g>
<g id="clust12" class="cluster">
<title>cluster_CoreModule_exports</title>
<polygon fill="none" stroke="black" points="330,-208 330,-260 1718,-260 1718,-208 330,-208"/>
</g>
<g id="clust2" class="cluster">
<title>cluster_CoreModule_declarations</title>
<polygon fill="none" stroke="black" points="695,-78 695,-130 1924,-130 1924,-78 695,-78"/>
</g>
<g id="clust14" class="cluster">
<title>cluster_CoreModule_providers</title>
<polygon fill="none" stroke="black" points="320,-78 320,-130 687,-130 687,-78 320,-78"/>
</g>
<g id="clust11" class="cluster">
<title>cluster_CoreModule_imports</title>
<polygon fill="none" stroke="black" points="16,-78 16,-130 312,-130 312,-78 16,-78"/>
</g>
<!-- AutenticacaoComponent -->
<g id="node1" class="node">
<title>AutenticacaoComponent</title>
<polygon fill="#ffffb3" stroke="black" points="1915.68,-122 1760.32,-122 1760.32,-86 1915.68,-86 1915.68,-122"/>
<text text-anchor="middle" x="1838" y="-99.8" font-family="Times,serif" font-size="14.00">AutenticacaoComponent</text>
</g>
<!-- CoreModule -->
<g id="node9" class="node">
<title>CoreModule</title>
<polygon fill="#8dd3c7" stroke="black" points="1056.26,-187 1053.26,-191 1032.26,-191 1029.26,-187 969.74,-187 969.74,-151 1056.26,-151 1056.26,-187"/>
<text text-anchor="middle" x="1013" y="-164.8" font-family="Times,serif" font-size="14.00">CoreModule</text>
</g>
<!-- AutenticacaoComponent&#45;&gt;CoreModule -->
<g id="edge1" class="edge">
<title>AutenticacaoComponent&#45;&gt;CoreModule</title>
<path fill="none" stroke="black" d="M1838,-122.11C1838,-141.34 1838,-169 1838,-169 1838,-169 1066.48,-169 1066.48,-169"/>
<polygon fill="black" stroke="black" points="1066.48,-165.5 1056.48,-169 1066.48,-172.5 1066.48,-165.5"/>
</g>
<!-- CreditosComponent -->
<g id="node2" class="node">
<title>CreditosComponent</title>
<polygon fill="#ffffb3" stroke="black" points="1742.27,-122 1613.73,-122 1613.73,-86 1742.27,-86 1742.27,-122"/>
<text text-anchor="middle" x="1678" y="-99.8" font-family="Times,serif" font-size="14.00">CreditosComponent</text>
</g>
<!-- CreditosComponent&#45;&gt;CoreModule -->
<g id="edge2" class="edge">
<title>CreditosComponent&#45;&gt;CoreModule</title>
<path fill="none" stroke="black" d="M1661.98,-122.27C1661.98,-140.56 1661.98,-166 1661.98,-166 1661.98,-166 1066.34,-166 1066.34,-166"/>
<polygon fill="black" stroke="black" points="1066.34,-162.5 1056.34,-166 1066.34,-169.5 1066.34,-162.5"/>
</g>
<!-- LoginComponent -->
<g id="node3" class="node">
<title>LoginComponent</title>
<polygon fill="#ffffb3" stroke="black" points="1595.28,-122 1480.72,-122 1480.72,-86 1595.28,-86 1595.28,-122"/>
<text text-anchor="middle" x="1538" y="-99.8" font-family="Times,serif" font-size="14.00">LoginComponent</text>
</g>
<!-- LoginComponent&#45;&gt;CoreModule -->
<g id="edge3" class="edge">
<title>LoginComponent&#45;&gt;CoreModule</title>
<path fill="none" stroke="black" d="M1507.37,-122.03C1507.37,-139.06 1507.37,-162 1507.37,-162 1507.37,-162 1066.44,-162 1066.44,-162"/>
<polygon fill="black" stroke="black" points="1066.44,-158.5 1056.44,-162 1066.44,-165.5 1066.44,-158.5"/>
</g>
<!-- MainContentComponent -->
<g id="node4" class="node">
<title>MainContentComponent</title>
<polygon fill="#ffffb3" stroke="black" points="1462.71,-122 1307.29,-122 1307.29,-86 1462.71,-86 1462.71,-122"/>
<text text-anchor="middle" x="1385" y="-99.8" font-family="Times,serif" font-size="14.00">MainContentComponent</text>
</g>
<!-- MainContentComponent&#45;&gt;CoreModule -->
<g id="edge4" class="edge">
<title>MainContentComponent&#45;&gt;CoreModule</title>
<path fill="none" stroke="black" d="M1345.77,-122.01C1345.77,-138.05 1345.77,-159 1345.77,-159 1345.77,-159 1066.5,-159 1066.5,-159"/>
<polygon fill="black" stroke="black" points="1066.5,-155.5 1056.5,-159 1066.5,-162.5 1066.5,-155.5"/>
</g>
<!-- MenuComponent -->
<g id="node5" class="node">
<title>MenuComponent</title>
<polygon fill="#ffffb3" stroke="black" points="1288.99,-122 1175.01,-122 1175.01,-86 1288.99,-86 1288.99,-122"/>
<text text-anchor="middle" x="1232" y="-99.8" font-family="Times,serif" font-size="14.00">MenuComponent</text>
</g>
<!-- MenuComponent&#45;&gt;CoreModule -->
<g id="edge5" class="edge">
<title>MenuComponent&#45;&gt;CoreModule</title>
<path fill="none" stroke="black" d="M1211.68,-122.12C1211.68,-136.78 1211.68,-155 1211.68,-155 1211.68,-155 1066.6,-155 1066.6,-155"/>
<polygon fill="black" stroke="black" points="1066.6,-151.5 1056.6,-155 1066.6,-158.5 1066.6,-151.5"/>
</g>
<!-- RecuperarComponent -->
<g id="node6" class="node">
<title>RecuperarComponent</title>
<polygon fill="#ffffb3" stroke="black" points="1157.35,-122 1018.65,-122 1018.65,-86 1157.35,-86 1157.35,-122"/>
<text text-anchor="middle" x="1088" y="-99.8" font-family="Times,serif" font-size="14.00">RecuperarComponent</text>
</g>
<!-- RecuperarComponent&#45;&gt;CoreModule -->
<g id="edge6" class="edge">
<title>RecuperarComponent&#45;&gt;CoreModule</title>
<path fill="none" stroke="black" d="M1037.48,-122.11C1037.48,-122.11 1037.48,-140.99 1037.48,-140.99"/>
<polygon fill="black" stroke="black" points="1033.98,-140.99 1037.48,-150.99 1040.98,-140.99 1033.98,-140.99"/>
</g>
<!-- RegistoComponent -->
<g id="node7" class="node">
<title>RegistoComponent</title>
<polygon fill="#ffffb3" stroke="black" points="1001.11,-122 876.89,-122 876.89,-86 1001.11,-86 1001.11,-122"/>
<text text-anchor="middle" x="939" y="-99.8" font-family="Times,serif" font-size="14.00">RegistoComponent</text>
</g>
<!-- RegistoComponent&#45;&gt;CoreModule -->
<g id="edge7" class="edge">
<title>RegistoComponent&#45;&gt;CoreModule</title>
<path fill="none" stroke="black" d="M985.34,-122.11C985.34,-122.11 985.34,-140.99 985.34,-140.99"/>
<polygon fill="black" stroke="black" points="981.84,-140.99 985.34,-150.99 988.84,-140.99 981.84,-140.99"/>
</g>
<!-- SplashScreenComponent -->
<g id="node8" class="node">
<title>SplashScreenComponent</title>
<polygon fill="#ffffb3" stroke="black" points="859.25,-122 702.75,-122 702.75,-86 859.25,-86 859.25,-122"/>
<text text-anchor="middle" x="781" y="-99.8" font-family="Times,serif" font-size="14.00">SplashScreenComponent</text>
</g>
<!-- SplashScreenComponent&#45;&gt;CoreModule -->
<g id="edge8" class="edge">
<title>SplashScreenComponent&#45;&gt;CoreModule</title>
<path fill="none" stroke="black" d="M840.79,-122.12C840.79,-136.78 840.79,-155 840.79,-155 840.79,-155 959.54,-155 959.54,-155"/>
<polygon fill="black" stroke="black" points="959.54,-158.5 969.54,-155 959.54,-151.5 959.54,-158.5"/>
</g>
<!-- AutenticacaoComponent  -->
<g id="node12" class="node">
<title>AutenticacaoComponent </title>
<polygon fill="#fb8072" stroke="black" points="1710.18,-252 1551.82,-252 1551.82,-216 1710.18,-216 1710.18,-252"/>
<text text-anchor="middle" x="1631" y="-229.8" font-family="Times,serif" font-size="14.00">AutenticacaoComponent </text>
</g>
<!-- CoreModule&#45;&gt;AutenticacaoComponent  -->
<g id="edge11" class="edge">
<title>CoreModule&#45;&gt;AutenticacaoComponent </title>
<path fill="none" stroke="black" stroke-dasharray="5,2" d="M1056.52,-173C1188.21,-173 1573.52,-173 1573.52,-173 1573.52,-173 1573.52,-205.7 1573.52,-205.7"/>
<polygon fill="black" stroke="black" points="1570.02,-205.7 1573.52,-215.7 1577.02,-205.7 1570.02,-205.7"/>
</g>
<!-- CreditosComponent  -->
<g id="node13" class="node">
<title>CreditosComponent </title>
<polygon fill="#fb8072" stroke="black" points="1534.27,-252 1401.73,-252 1401.73,-216 1534.27,-216 1534.27,-252"/>
<text text-anchor="middle" x="1468" y="-229.8" font-family="Times,serif" font-size="14.00">CreditosComponent </text>
</g>
<!-- CoreModule&#45;&gt;CreditosComponent  -->
<g id="edge12" class="edge">
<title>CoreModule&#45;&gt;CreditosComponent </title>
<path fill="none" stroke="black" stroke-dasharray="5,2" d="M1056.29,-177C1163.4,-177 1432.24,-177 1432.24,-177 1432.24,-177 1432.24,-205.96 1432.24,-205.96"/>
<polygon fill="black" stroke="black" points="1428.74,-205.96 1432.24,-215.96 1435.74,-205.96 1428.74,-205.96"/>
</g>
<!-- LoginComponent  -->
<g id="node14" class="node">
<title>LoginComponent </title>
<polygon fill="#fb8072" stroke="black" points="1384.28,-252 1265.72,-252 1265.72,-216 1384.28,-216 1384.28,-252"/>
<text text-anchor="middle" x="1325" y="-229.8" font-family="Times,serif" font-size="14.00">LoginComponent </text>
</g>
<!-- CoreModule&#45;&gt;LoginComponent  -->
<g id="edge13" class="edge">
<title>CoreModule&#45;&gt;LoginComponent </title>
<path fill="none" stroke="black" stroke-dasharray="5,2" d="M1056.37,-180C1131.39,-180 1277.43,-180 1277.43,-180 1277.43,-180 1277.43,-205.72 1277.43,-205.72"/>
<polygon fill="black" stroke="black" points="1273.93,-205.72 1277.43,-215.72 1280.93,-205.72 1273.93,-205.72"/>
</g>
<!-- MainContentComponent  -->
<g id="node15" class="node">
<title>MainContentComponent </title>
<polygon fill="#fb8072" stroke="black" points="1248.21,-252 1089.79,-252 1089.79,-216 1248.21,-216 1248.21,-252"/>
<text text-anchor="middle" x="1169" y="-229.8" font-family="Times,serif" font-size="14.00">MainContentComponent </text>
</g>
<!-- CoreModule&#45;&gt;MainContentComponent  -->
<g id="edge14" class="edge">
<title>CoreModule&#45;&gt;MainContentComponent </title>
<path fill="none" stroke="black" stroke-dasharray="5,2" d="M1056.37,-184C1087.34,-184 1123.53,-184 1123.53,-184 1123.53,-184 1123.53,-205.95 1123.53,-205.95"/>
<polygon fill="black" stroke="black" points="1120.03,-205.95 1123.53,-215.95 1127.03,-205.95 1120.03,-205.95"/>
</g>
<!-- MenuComponent  -->
<g id="node16" class="node">
<title>MenuComponent </title>
<polygon fill="#fb8072" stroke="black" points="1071.99,-252 954.01,-252 954.01,-216 1071.99,-216 1071.99,-252"/>
<text text-anchor="middle" x="1013" y="-229.8" font-family="Times,serif" font-size="14.00">MenuComponent </text>
</g>
<!-- CoreModule&#45;&gt;MenuComponent  -->
<g id="edge15" class="edge">
<title>CoreModule&#45;&gt;MenuComponent </title>
<path fill="none" stroke="black" stroke-dasharray="5,2" d="M1013,-187.11C1013,-187.11 1013,-205.99 1013,-205.99"/>
<polygon fill="black" stroke="black" points="1009.5,-205.99 1013,-215.99 1016.5,-205.99 1009.5,-205.99"/>
</g>
<!-- PrimeNgModule  -->
<g id="node17" class="node">
<title>PrimeNgModule </title>
<polygon fill="#fb8072" stroke="black" points="935.6,-252 822.4,-252 822.4,-216 935.6,-216 935.6,-252"/>
<text text-anchor="middle" x="879" y="-229.8" font-family="Times,serif" font-size="14.00">PrimeNgModule </text>
</g>
<!-- CoreModule&#45;&gt;PrimeNgModule  -->
<g id="edge16" class="edge">
<title>CoreModule&#45;&gt;PrimeNgModule </title>
<path fill="none" stroke="black" stroke-dasharray="5,2" d="M969.63,-184C940.11,-184 906.37,-184 906.37,-184 906.37,-184 906.37,-205.95 906.37,-205.95"/>
<polygon fill="black" stroke="black" points="902.87,-205.95 906.37,-215.95 909.87,-205.95 902.87,-205.95"/>
</g>
<!-- RecuperarComponent  -->
<g id="node18" class="node">
<title>RecuperarComponent </title>
<polygon fill="#fb8072" stroke="black" points="804.35,-252 661.65,-252 661.65,-216 804.35,-216 804.35,-252"/>
<text text-anchor="middle" x="733" y="-229.8" font-family="Times,serif" font-size="14.00">RecuperarComponent </text>
</g>
<!-- CoreModule&#45;&gt;RecuperarComponent  -->
<g id="edge17" class="edge">
<title>CoreModule&#45;&gt;RecuperarComponent </title>
<path fill="none" stroke="black" stroke-dasharray="5,2" d="M969.55,-180C895.65,-180 753.4,-180 753.4,-180 753.4,-180 753.4,-205.72 753.4,-205.72"/>
<polygon fill="black" stroke="black" points="749.9,-205.72 753.4,-215.72 756.9,-205.72 749.9,-205.72"/>
</g>
<!-- RegistoComponent  -->
<g id="node19" class="node">
<title>RegistoComponent </title>
<polygon fill="#fb8072" stroke="black" points="643.61,-252 516.39,-252 516.39,-216 643.61,-216 643.61,-252"/>
<text text-anchor="middle" x="580" y="-229.8" font-family="Times,serif" font-size="14.00">RegistoComponent </text>
</g>
<!-- CoreModule&#45;&gt;RegistoComponent  -->
<g id="edge18" class="edge">
<title>CoreModule&#45;&gt;RegistoComponent </title>
<path fill="none" stroke="black" stroke-dasharray="5,2" d="M969.5,-177C859.7,-177 580,-177 580,-177 580,-177 580,-205.96 580,-205.96"/>
<polygon fill="black" stroke="black" points="576.5,-205.96 580,-215.96 583.5,-205.96 576.5,-205.96"/>
</g>
<!-- SplashScreenComponent  -->
<g id="node20" class="node">
<title>SplashScreenComponent </title>
<polygon fill="#fb8072" stroke="black" points="498.25,-252 337.75,-252 337.75,-216 498.25,-216 498.25,-252"/>
<text text-anchor="middle" x="418" y="-229.8" font-family="Times,serif" font-size="14.00">SplashScreenComponent </text>
</g>
<!-- CoreModule&#45;&gt;SplashScreenComponent  -->
<g id="edge19" class="edge">
<title>CoreModule&#45;&gt;SplashScreenComponent </title>
<path fill="none" stroke="black" stroke-dasharray="5,2" d="M969.42,-173C844.06,-173 491.37,-173 491.37,-173 491.37,-173 491.37,-205.7 491.37,-205.7"/>
<polygon fill="black" stroke="black" points="487.87,-205.7 491.37,-215.7 494.87,-205.7 487.87,-205.7"/>
</g>
<!-- AngularMaterialModule -->
<g id="node10" class="node">
<title>AngularMaterialModule</title>
<polygon fill="#8dd3c7" stroke="black" points="304.34,-122 301.34,-126 280.34,-126 277.34,-122 151.66,-122 151.66,-86 304.34,-86 304.34,-122"/>
<text text-anchor="middle" x="228" y="-99.8" font-family="Times,serif" font-size="14.00">AngularMaterialModule</text>
</g>
<!-- AngularMaterialModule&#45;&gt;CoreModule -->
<g id="edge9" class="edge">
<title>AngularMaterialModule&#45;&gt;CoreModule</title>
<path fill="none" stroke="black" d="M228,-122.27C228,-140.56 228,-166 228,-166 228,-166 959.68,-166 959.68,-166"/>
<polygon fill="black" stroke="black" points="959.68,-169.5 969.68,-166 959.68,-162.5 959.68,-169.5"/>
</g>
<!-- PrimeNgModule -->
<g id="node11" class="node">
<title>PrimeNgModule</title>
<polygon fill="#8dd3c7" stroke="black" points="134.1,-122 131.1,-126 110.1,-126 107.1,-122 23.9,-122 23.9,-86 134.1,-86 134.1,-122"/>
<text text-anchor="middle" x="79" y="-99.8" font-family="Times,serif" font-size="14.00">PrimeNgModule</text>
</g>
<!-- PrimeNgModule&#45;&gt;CoreModule -->
<g id="edge10" class="edge">
<title>PrimeNgModule&#45;&gt;CoreModule</title>
<path fill="none" stroke="black" d="M79,-122.11C79,-141.34 79,-169 79,-169 79,-169 959.51,-169 959.51,-169"/>
<polygon fill="black" stroke="black" points="959.51,-172.5 969.51,-169 959.51,-165.5 959.51,-172.5"/>
</g>
<!-- AuthenticationService -->
<g id="node21" class="node">
<title>AuthenticationService</title>
<ellipse fill="#fdb462" stroke="black" cx="582" cy="-104" rx="97.27" ry="18"/>
<text text-anchor="middle" x="582" y="-99.8" font-family="Times,serif" font-size="14.00">AuthenticationService</text>
</g>
<!-- AuthenticationService&#45;&gt;CoreModule -->
<g id="edge20" class="edge">
<title>AuthenticationService&#45;&gt;CoreModule</title>
<path fill="none" stroke="black" d="M670.6,-111.65C670.6,-126.76 670.6,-159 670.6,-159 670.6,-159 959.64,-159 959.64,-159"/>
<polygon fill="black" stroke="black" points="959.64,-162.5 969.64,-159 959.64,-155.5 959.64,-162.5"/>
</g>
<!-- SessionService -->
<g id="node22" class="node">
<title>SessionService</title>
<ellipse fill="#fdb462" stroke="black" cx="397" cy="-104" rx="69.5" ry="18"/>
<text text-anchor="middle" x="397" y="-99.8" font-family="Times,serif" font-size="14.00">SessionService</text>
</g>
<!-- SessionService&#45;&gt;CoreModule -->
<g id="edge21" class="edge">
<title>SessionService&#45;&gt;CoreModule</title>
<path fill="none" stroke="black" d="M402.19,-122.03C402.19,-139.06 402.19,-162 402.19,-162 402.19,-162 959.56,-162 959.56,-162"/>
<polygon fill="black" stroke="black" points="959.56,-165.5 969.56,-162 959.56,-158.5 959.56,-165.5"/>
</g>
</g>
</svg>
