<?xml version="1.0" encoding="UTF-8" standalone="no"?>
<!DOCTYPE svg PUBLIC "-//W3C//DTD SVG 1.1//EN"
 "http://www.w3.org/Graphics/SVG/1.1/DTD/svg11.dtd">
<!-- Generated by graphviz version 2.47.0 (20210316.0004)
 -->
<!-- Title: dependencies Pages: 1 -->
<svg width="709pt" height="284pt"
 viewBox="0.00 0.00 709.00 284.00" xmlns="http://www.w3.org/2000/svg" xmlns:xlink="http://www.w3.org/1999/xlink">
<g id="graph0" class="graph" transform="scale(1 1) rotate(0) translate(4 280)">
<title>dependencies</title>
<polygon fill="white" stroke="transparent" points="-4,4 -4,-280 705,-280 705,4 -4,4"/>
<text text-anchor="start" x="329.51" y="-42.4" font-family="Times-12" font-weight="bold" font-size="14.00">Legend</text>
<polygon fill="#ffffb3" stroke="transparent" points="116.5,-10 116.5,-30 136.5,-30 136.5,-10 116.5,-10"/>
<text text-anchor="start" x="140.13" y="-15.4" font-family="Times-12" font-size="14.00"> &#160;Declarations</text>
<polygon fill="#8dd3c7" stroke="transparent" points="229.5,-10 229.5,-30 249.5,-30 249.5,-10 229.5,-10"/>
<text text-anchor="start" x="253.23" y="-15.4" font-family="Times-12" font-size="14.00"> &#160;Module</text>
<polygon fill="#80b1d3" stroke="transparent" points="315.5,-10 315.5,-30 335.5,-30 335.5,-10 315.5,-10"/>
<text text-anchor="start" x="339.28" y="-15.4" font-family="Times-12" font-size="14.00"> &#160;Bootstrap</text>
<polygon fill="#fdb462" stroke="transparent" points="412.5,-10 412.5,-30 432.5,-30 432.5,-10 412.5,-10"/>
<text text-anchor="start" x="436.17" y="-15.4" font-family="Times-12" font-size="14.00"> &#160;Providers</text>
<polygon fill="#fb8072" stroke="transparent" points="508.5,-10 508.5,-30 528.5,-30 528.5,-10 508.5,-10"/>
<text text-anchor="start" x="532.23" y="-15.4" font-family="Times-12" font-size="14.00"> &#160;Exports</text>
<g id="clust1" class="cluster">
<title>cluster_MainModule</title>
<polygon fill="none" stroke="black" stroke-dasharray="1,5" points="8,-70 8,-268 693,-268 693,-70 8,-70"/>
</g>
<g id="clust2" class="cluster">
<title>cluster_MainModule_declarations</title>
<polygon fill="none" stroke="black" points="559,-78 559,-130 685,-130 685,-78 559,-78"/>
</g>
<g id="clust6" class="cluster">
<title>cluster_MainModule_bootstrap</title>
<polygon fill="none" stroke="black" points="357,-208 357,-260 487,-260 487,-208 357,-208"/>
</g>
<g id="clust4" class="cluster">
<title>cluster_MainModule_imports</title>
<polygon fill="none" stroke="black" points="174,-78 174,-130 551,-130 551,-78 174,-78"/>
</g>
<g id="clust7" class="cluster">
<title>cluster_MainModule_providers</title>
<polygon fill="none" stroke="black" points="16,-78 16,-130 166,-130 166,-78 16,-78"/>
</g>
<g id="clust5" class="cluster">
<title>cluster_MainModule_exports</title>
<polygon fill="none" stroke="black" points="219,-208 219,-260 349,-260 349,-208 219,-208"/>
</g>
<!-- MainComponent -->
<g id="node1" class="node">
<title>MainComponent</title>
<polygon fill="#ffffb3" stroke="black" points="677.38,-122 566.62,-122 566.62,-86 677.38,-86 677.38,-122"/>
<text text-anchor="middle" x="622" y="-99.8" font-family="Times,serif" font-size="14.00">MainComponent</text>
</g>
<!-- MainModule -->
<g id="node2" class="node">
<title>MainModule</title>
<polygon fill="#8dd3c7" stroke="black" points="397.6,-187 394.6,-191 373.6,-191 370.6,-187 308.4,-187 308.4,-151 397.6,-151 397.6,-187"/>
<text text-anchor="middle" x="353" y="-164.8" font-family="Times,serif" font-size="14.00">MainModule</text>
</g>
<!-- MainComponent&#45;&gt;MainModule -->
<g id="edge1" class="edge">
<title>MainComponent&#45;&gt;MainModule</title>
<path fill="none" stroke="black" d="M622,-122.28C622,-143.32 622,-175 622,-175 622,-175 407.72,-175 407.72,-175"/>
<polygon fill="black" stroke="black" points="407.72,-171.5 397.72,-175 407.72,-178.5 407.72,-171.5"/>
</g>
<!-- PrimeNgModule  -->
<g id="node6" class="node">
<title>PrimeNgModule </title>
<polygon fill="#fb8072" stroke="black" points="340.6,-252 227.4,-252 227.4,-216 340.6,-216 340.6,-252"/>
<text text-anchor="middle" x="284" y="-229.8" font-family="Times,serif" font-size="14.00">PrimeNgModule </text>
</g>
<!-- MainModule&#45;&gt;PrimeNgModule  -->
<g id="edge5" class="edge">
<title>MainModule&#45;&gt;PrimeNgModule </title>
<path fill="none" stroke="black" stroke-dasharray="5,2" d="M324.62,-187.11C324.62,-187.11 324.62,-205.99 324.62,-205.99"/>
<polygon fill="black" stroke="black" points="321.12,-205.99 324.62,-215.99 328.12,-205.99 321.12,-205.99"/>
</g>
<!-- MainComponent  -->
<g id="node7" class="node">
<title>MainComponent </title>
<polygon fill="#80b1d3" stroke="black" points="479.38,-252 364.62,-252 364.62,-216 479.38,-216 479.38,-252"/>
<text text-anchor="middle" x="422" y="-229.8" font-family="Times,serif" font-size="14.00">MainComponent </text>
</g>
<!-- MainModule&#45;&gt;MainComponent  -->
<g id="edge6" class="edge">
<title>MainModule&#45;&gt;MainComponent </title>
<path fill="none" stroke="black" stroke-dasharray="1,5" d="M381.18,-187.11C381.18,-187.11 381.18,-205.99 381.18,-205.99"/>
<polygon fill="black" stroke="black" points="377.68,-205.99 381.18,-215.99 384.68,-205.99 377.68,-205.99"/>
</g>
<!-- AppRoutingModule -->
<g id="node3" class="node">
<title>AppRoutingModule</title>
<polygon fill="#8dd3c7" stroke="black" points="543.27,-122 540.27,-126 519.27,-126 516.27,-122 414.73,-122 414.73,-86 543.27,-86 543.27,-122"/>
<text text-anchor="middle" x="479" y="-99.8" font-family="Times,serif" font-size="14.00">AppRoutingModule</text>
</g>
<!-- AppRoutingModule&#45;&gt;MainModule -->
<g id="edge2" class="edge">
<title>AppRoutingModule&#45;&gt;MainModule</title>
<path fill="none" stroke="black" d="M446.9,-122.02C446.9,-139.37 446.9,-163 446.9,-163 446.9,-163 407.75,-163 407.75,-163"/>
<polygon fill="black" stroke="black" points="407.75,-159.5 397.75,-163 407.75,-166.5 407.75,-159.5"/>
</g>
<!-- CoreModule -->
<g id="node4" class="node">
<title>CoreModule</title>
<polygon fill="#8dd3c7" stroke="black" points="396.26,-122 393.26,-126 372.26,-126 369.26,-122 309.74,-122 309.74,-86 396.26,-86 396.26,-122"/>
<text text-anchor="middle" x="353" y="-99.8" font-family="Times,serif" font-size="14.00">CoreModule</text>
</g>
<!-- CoreModule&#45;&gt;MainModule -->
<g id="edge3" class="edge">
<title>CoreModule&#45;&gt;MainModule</title>
<path fill="none" stroke="black" d="M353,-122.11C353,-122.11 353,-140.99 353,-140.99"/>
<polygon fill="black" stroke="black" points="349.5,-140.99 353,-150.99 356.5,-140.99 349.5,-140.99"/>
</g>
<!-- PrimeNgModule -->
<g id="node5" class="node">
<title>PrimeNgModule</title>
<polygon fill="#8dd3c7" stroke="black" points="292.1,-122 289.1,-126 268.1,-126 265.1,-122 181.9,-122 181.9,-86 292.1,-86 292.1,-122"/>
<text text-anchor="middle" x="237" y="-99.8" font-family="Times,serif" font-size="14.00">PrimeNgModule</text>
</g>
<!-- PrimeNgModule&#45;&gt;MainModule -->
<g id="edge4" class="edge">
<title>PrimeNgModule&#45;&gt;MainModule</title>
<path fill="none" stroke="black" d="M259.62,-122.02C259.62,-139.37 259.62,-163 259.62,-163 259.62,-163 298.23,-163 298.23,-163"/>
<polygon fill="black" stroke="black" points="298.23,-166.5 308.23,-163 298.23,-159.5 298.23,-166.5"/>
</g>
<!-- JwtInterceptor -->
<g id="node8" class="node">
<title>JwtInterceptor</title>
<ellipse fill="#fdb462" stroke="black" cx="91" cy="-104" rx="66.61" ry="18"/>
<text text-anchor="middle" x="91" y="-99.8" font-family="Times,serif" font-size="14.00">JwtInterceptor</text>
</g>
<!-- JwtInterceptor&#45;&gt;MainModule -->
<g id="edge7" class="edge">
<title>JwtInterceptor&#45;&gt;MainModule</title>
<path fill="none" stroke="black" d="M91,-122.28C91,-143.32 91,-175 91,-175 91,-175 298.26,-175 298.26,-175"/>
<polygon fill="black" stroke="black" points="298.26,-178.5 308.26,-175 298.26,-171.5 298.26,-178.5"/>
</g>
</g>
</svg>
