<?xml version="1.0" encoding="UTF-8" standalone="no"?>
<!DOCTYPE svg PUBLIC "-//W3C//DTD SVG 1.1//EN"
 "http://www.w3.org/Graphics/SVG/1.1/DTD/svg11.dtd">
<!-- Generated by graphviz version 2.47.0 (20210316.0004)
 -->
<!-- Title: dependencies Pages: 1 -->
<svg width="709pt" height="284pt"
 viewBox="0.00 0.00 709.00 284.00" xmlns="http://www.w3.org/2000/svg" xmlns:xlink="http://www.w3.org/1999/xlink">
<g id="graph0" class="graph" transform="scale(1 1) rotate(0) translate(4 280)">
<title>dependencies</title>
<polygon fill="white" stroke="transparent" points="-4,4 -4,-280 705,-280 705,4 -4,4"/>
<text text-anchor="start" x="329.51" y="-42.4" font-family="Times-12" font-weight="bold" font-size="14.00">Legend</text>
<polygon fill="#ffffb3" stroke="transparent" points="116.5,-10 116.5,-30 136.5,-30 136.5,-10 116.5,-10"/>
<text text-anchor="start" x="140.13" y="-15.4" font-family="Times-12" font-size="14.00"> &#160;Declarations</text>
<polygon fill="#8dd3c7" stroke="transparent" points="229.5,-10 229.5,-30 249.5,-30 249.5,-10 229.5,-10"/>
<text text-anchor="start" x="253.23" y="-15.4" font-family="Times-12" font-size="14.00"> &#160;Module</text>
<polygon fill="#80b1d3" stroke="transparent" points="315.5,-10 315.5,-30 335.5,-30 335.5,-10 315.5,-10"/>
<text text-anchor="start" x="339.28" y="-15.4" font-family="Times-12" font-size="14.00"> &#160;Bootstrap</text>
<polygon fill="#fdb462" stroke="transparent" points="412.5,-10 412.5,-30 432.5,-30 432.5,-10 412.5,-10"/>
<text text-anchor="start" x="436.17" y="-15.4" font-family="Times-12" font-size="14.00"> &#160;Providers</text>
<polygon fill="#fb8072" stroke="transparent" points="508.5,-10 508.5,-30 528.5,-30 528.5,-10 508.5,-10"/>
<text text-anchor="start" x="532.23" y="-15.4" font-family="Times-12" font-size="14.00"> &#160;Exports</text>
<g id="clust1" class="cluster">
<title>cluster_MainModule</title>
<polygon fill="none" stroke="black" stroke-dasharray="1,5" points="8,-70 8,-268 693,-268 693,-70 8,-70"/>
</g>
<g id="clust4" class="cluster">
<title>cluster_MainModule_imports</title>
<polygon fill="none" stroke="black" points="308,-78 308,-130 685,-130 685,-78 308,-78"/>
</g>
<g id="clust7" class="cluster">
<title>cluster_MainModule_providers</title>
<polygon fill="none" stroke="black" points="150,-78 150,-130 300,-130 300,-78 150,-78"/>
</g>
<g id="clust6" class="cluster">
<title>cluster_MainModule_bootstrap</title>
<polygon fill="none" stroke="black" points="375,-208 375,-260 505,-260 505,-208 375,-208"/>
</g>
<g id="clust5" class="cluster">
<title>cluster_MainModule_exports</title>
<polygon fill="none" stroke="black" points="237,-208 237,-260 367,-260 367,-208 237,-208"/>
</g>
<g id="clust2" class="cluster">
<title>cluster_MainModule_declarations</title>
<polygon fill="none" stroke="black" points="16,-78 16,-130 142,-130 142,-78 16,-78"/>
</g>
<!-- MainComponent -->
<g id="node1" class="node">
<title>MainComponent</title>
<polygon fill="#ffffb3" stroke="black" points="134.38,-122 23.62,-122 23.62,-86 134.38,-86 134.38,-122"/>
<text text-anchor="middle" x="79" y="-99.8" font-family="Times,serif" font-size="14.00">MainComponent</text>
</g>
<!-- MainModule -->
<g id="node2" class="node">
<title>MainModule</title>
<polygon fill="#8dd3c7" stroke="black" points="415.6,-187 412.6,-191 391.6,-191 388.6,-187 326.4,-187 326.4,-151 415.6,-151 415.6,-187"/>
<text text-anchor="middle" x="371" y="-164.8" font-family="Times,serif" font-size="14.00">MainModule</text>
</g>
<!-- MainComponent&#45;&gt;MainModule -->
<g id="edge1" class="edge">
<title>MainComponent&#45;&gt;MainModule</title>
<path fill="none" stroke="black" d="M79,-122.28C79,-143.32 79,-175 79,-175 79,-175 316.33,-175 316.33,-175"/>
<polygon fill="black" stroke="black" points="316.33,-178.5 326.33,-175 316.33,-171.5 316.33,-178.5"/>
</g>
<!-- PrimeNgModule  -->
<g id="node6" class="node">
<title>PrimeNgModule </title>
<polygon fill="#fb8072" stroke="black" points="358.6,-252 245.4,-252 245.4,-216 358.6,-216 358.6,-252"/>
<text text-anchor="middle" x="302" y="-229.8" font-family="Times,serif" font-size="14.00">PrimeNgModule </text>
</g>
<!-- MainModule&#45;&gt;PrimeNgModule  -->
<g id="edge5" class="edge">
<title>MainModule&#45;&gt;PrimeNgModule </title>
<path fill="none" stroke="black" stroke-dasharray="5,2" d="M342.62,-187.11C342.62,-187.11 342.62,-205.99 342.62,-205.99"/>
<polygon fill="black" stroke="black" points="339.12,-205.99 342.62,-215.99 346.12,-205.99 339.12,-205.99"/>
</g>
<!-- MainComponent  -->
<g id="node7" class="node">
<title>MainComponent </title>
<polygon fill="#80b1d3" stroke="black" points="497.38,-252 382.62,-252 382.62,-216 497.38,-216 497.38,-252"/>
<text text-anchor="middle" x="440" y="-229.8" font-family="Times,serif" font-size="14.00">MainComponent </text>
</g>
<!-- MainModule&#45;&gt;MainComponent  -->
<g id="edge6" class="edge">
<title>MainModule&#45;&gt;MainComponent </title>
<path fill="none" stroke="black" stroke-dasharray="1,5" d="M399.18,-187.11C399.18,-187.11 399.18,-205.99 399.18,-205.99"/>
<polygon fill="black" stroke="black" points="395.68,-205.99 399.18,-215.99 402.68,-205.99 395.68,-205.99"/>
</g>
<!-- AppRoutingModule -->
<g id="node3" class="node">
<title>AppRoutingModule</title>
<polygon fill="#8dd3c7" stroke="black" points="677.27,-122 674.27,-126 653.27,-126 650.27,-122 548.73,-122 548.73,-86 677.27,-86 677.27,-122"/>
<text text-anchor="middle" x="613" y="-99.8" font-family="Times,serif" font-size="14.00">AppRoutingModule</text>
</g>
<!-- AppRoutingModule&#45;&gt;MainModule -->
<g id="edge2" class="edge">
<title>AppRoutingModule&#45;&gt;MainModule</title>
<path fill="none" stroke="black" d="M613,-122.28C613,-143.32 613,-175 613,-175 613,-175 425.67,-175 425.67,-175"/>
<polygon fill="black" stroke="black" points="425.67,-171.5 415.67,-175 425.67,-178.5 425.67,-171.5"/>
</g>
<!-- CoreModule -->
<g id="node4" class="node">
<title>CoreModule</title>
<polygon fill="#8dd3c7" stroke="black" points="530.26,-122 527.26,-126 506.26,-126 503.26,-122 443.74,-122 443.74,-86 530.26,-86 530.26,-122"/>
<text text-anchor="middle" x="487" y="-99.8" font-family="Times,serif" font-size="14.00">CoreModule</text>
</g>
<!-- CoreModule&#45;&gt;MainModule -->
<g id="edge3" class="edge">
<title>CoreModule&#45;&gt;MainModule</title>
<path fill="none" stroke="black" d="M470.41,-122.02C470.41,-139.37 470.41,-163 470.41,-163 470.41,-163 425.76,-163 425.76,-163"/>
<polygon fill="black" stroke="black" points="425.76,-159.5 415.76,-163 425.76,-166.5 425.76,-159.5"/>
</g>
<!-- PrimeNgModule -->
<g id="node5" class="node">
<title>PrimeNgModule</title>
<polygon fill="#8dd3c7" stroke="black" points="426.1,-122 423.1,-126 402.1,-126 399.1,-122 315.9,-122 315.9,-86 426.1,-86 426.1,-122"/>
<text text-anchor="middle" x="371" y="-99.8" font-family="Times,serif" font-size="14.00">PrimeNgModule</text>
</g>
<!-- PrimeNgModule&#45;&gt;MainModule -->
<g id="edge4" class="edge">
<title>PrimeNgModule&#45;&gt;MainModule</title>
<path fill="none" stroke="black" d="M371,-122.11C371,-122.11 371,-140.99 371,-140.99"/>
<polygon fill="black" stroke="black" points="367.5,-140.99 371,-150.99 374.5,-140.99 367.5,-140.99"/>
</g>
<!-- JwtInterceptor -->
<g id="node8" class="node">
<title>JwtInterceptor</title>
<ellipse fill="#fdb462" stroke="black" cx="225" cy="-104" rx="66.61" ry="18"/>
<text text-anchor="middle" x="225" y="-99.8" font-family="Times,serif" font-size="14.00">JwtInterceptor</text>
</g>
<!-- JwtInterceptor&#45;&gt;MainModule -->
<g id="edge7" class="edge">
<title>JwtInterceptor&#45;&gt;MainModule</title>
<path fill="none" stroke="black" d="M268.5,-117.68C268.5,-135.11 268.5,-163 268.5,-163 268.5,-163 316.34,-163 316.34,-163"/>
<polygon fill="black" stroke="black" points="316.34,-166.5 326.34,-163 316.34,-159.5 316.34,-166.5"/>
</g>
</g>
</svg>
